<svg class="animated" id="freepik_stories-baker" xmlns="http://www.w3.org/2000/svg" viewBox="0 0 500 500" version="1.1" xmlns:xlink="http://www.w3.org/1999/xlink" xmlns:svgjs="http://svgjs.com/svgjs"><style>svg#freepik_stories-baker:not(.animated) .animable {opacity: 0;}svg#freepik_stories-baker.animated #freepik--Shelves--inject-2 {animation: 1s 1 forwards ease-in slideLeft;animation-delay: 0s;}svg#freepik_stories-baker.animated #freepik--Character--inject-2 {animation: 1s 1 forwards cubic-bezier(.36,-0.01,.5,1.38) slideLeft,1.5s Infinite  linear floating;animation-delay: 0s,1s;}svg#freepik_stories-baker.animated #freepik--Cake--inject-2 {animation: 1.5s Infinite  linear shake;animation-delay: 0s;}            @keyframes slideLeft {                0% {                    opacity: 0;                    transform: translateX(-30px);                }                100% {                    opacity: 1;                    transform: translateX(0);                }            }                    @keyframes floating {                0% {                    opacity: 1;                    transform: translateY(0px);                }                50% {                    transform: translateY(-10px);                }                100% {                    opacity: 1;                    transform: translateY(0px);                }            }                    @keyframes shake {                10%, 90% {                    transform: translate3d(-1px, 0, 0);                  }                  20%, 80% {                    transform: translate3d(2px, 0, 0);                  }                  30%, 50%, 70% {                    transform: translate3d(-4px, 0, 0);                  }                  40%, 60% {                    transform: translate3d(4px, 0, 0);                  }            }        </style><g id="freepik--background-simple--inject-2" class="animable" style="transform-origin: 244.584px 249.47px;"><path d="M396.29,63.21c-17-29.31-53-39.21-84.69-40.81-28.15-1.43-56,9-77.19,27.48-31.13,27.16-32.63,75.55-85.34,64.63-13.86-2.88-26.49-9.39-40.32-12.11-28.1-5.52-52.21,9.44-49.91,40.9C60,159.51,73,173.64,70.52,190c-2.36,15.28-17.8,23.8-27.38,34.36-19.29,21.27-39.09,66.06-10,87.92,12.91,9.69,36.74,8.3,51.89,7.45,54.11-3-20.27,36.91-13.35,89.37s42.6,40.71,92,15.77,14.88,12.78,83.77,43.16,68.12-26.44,97.22-61c17.34-20.61,46.07-.18,64.37,8.2,20.6,9.43,64.32,13.7,61.58-22.25-.49-6.47-3.67-12.44-7.41-17.74-14.71-20.88-39.61-36.43-43.76-61.63-3-18.41,6.29-36.5,16.7-52,14.41-21.46,36.16-48.73,25.05-76.3-5.63-14-19-23.23-32.73-29.49-16.81-7.69-51.85-12.6-41.4-38.42,5.38-13.3,15.24-27.64,13.31-42.67A30.8,30.8,0,0,0,396.29,63.21Z" style="fill: #FF81AE; transform-origin: 244.584px 249.47px;" id="el5yw2rf9ksvq" class="animable"></path><g id="el2uah6y5li9p"><path d="M396.29,63.21c-17-29.31-53-39.21-84.69-40.81-28.15-1.43-56,9-77.19,27.48-31.13,27.16-32.63,75.55-85.34,64.63-13.86-2.88-26.49-9.39-40.32-12.11-28.1-5.52-52.21,9.44-49.91,40.9C60,159.51,73,173.64,70.52,190c-2.36,15.28-17.8,23.8-27.38,34.36-19.29,21.27-39.09,66.06-10,87.92,12.91,9.69,36.74,8.3,51.89,7.45,54.11-3-20.27,36.91-13.35,89.37s42.6,40.71,92,15.77,14.88,12.78,83.77,43.16,68.12-26.44,97.22-61c17.34-20.61,46.07-.18,64.37,8.2,20.6,9.43,64.32,13.7,61.58-22.25-.49-6.47-3.67-12.44-7.41-17.74-14.71-20.88-39.61-36.43-43.76-61.63-3-18.41,6.29-36.5,16.7-52,14.41-21.46,36.16-48.73,25.05-76.3-5.63-14-19-23.23-32.73-29.49-16.81-7.69-51.85-12.6-41.4-38.42,5.38-13.3,15.24-27.64,13.31-42.67A30.8,30.8,0,0,0,396.29,63.21Z" style="fill: rgb(255, 255, 255); opacity: 0.7; transform-origin: 244.584px 249.47px;" class="animable" id="el5dkg3ifj8qs"></path></g></g><g id="freepik--Shelves--inject-2" class="animable" style="transform-origin: 247.79px 272.98px;"><g id="eltti35h11a3"><path d="M286,146,138.2,442.19H462.59V154ZM409.07,434h-121l2.47-56H409.07Zm0-86.44h-121l2.47-56H409.07Zm0-102.92h-121l2.47-56H409.07ZM460.94,434H423.89V378h37.05Zm0-86.44H423.89v-56h37.05Zm0-102.92H423.89v-56h37.05Z" style="opacity: 0.2; transform-origin: 300.395px 294.095px;" class="animable" id="el0llpmli2k89"></path></g><path d="M300.05,238.39s.9-18.54,22.24-20.31c23.21-1.94,25.63,20.31,25.63,20.31Z" style="fill: #FF81AE; stroke: rgb(38, 50, 56); stroke-linecap: round; stroke-linejoin: round; transform-origin: 323.985px 228.175px;" id="elo117bsdd5ul" class="animable"></path><path d="M306.82,233.4a1.29,1.29,0,0,1-.81-.28,1.3,1.3,0,0,1-.21-1.83c.39-.5,9.91-12.18,31.24-8.21a1.3,1.3,0,0,1-.48,2.56c-19.7-3.66-28.36,6.82-28.72,7.27A1.32,1.32,0,0,1,306.82,233.4Z" style="fill: rgb(255, 255, 255); stroke: rgb(38, 50, 56); stroke-linecap: round; stroke-linejoin: round; transform-origin: 321.809px 227.829px;" id="el3yurahw5snh" class="animable"></path><path d="M309.72,239.69a1.26,1.26,0,0,1-.81-.29,1.29,1.29,0,0,1-.21-1.82c.39-.5,9.92-12.18,31.24-8.21a1.31,1.31,0,0,1,1.05,1.52,1.32,1.32,0,0,1-1.53,1c-19.7-3.66-28.36,6.82-28.72,7.27A1.32,1.32,0,0,1,309.72,239.69Z" style="fill: rgb(255, 255, 255); stroke: rgb(38, 50, 56); stroke-linecap: round; stroke-linejoin: round; transform-origin: 324.714px 234.119px;" id="elfrdu47z4t7" class="animable"></path><path d="M352.27,238.39s.91-18.54,22.25-20.31c23.21-1.94,25.63,20.31,25.63,20.31Z" style="fill: #FF81AE; stroke: rgb(38, 50, 56); stroke-linecap: round; stroke-linejoin: round; transform-origin: 376.21px 228.175px;" id="elsoxjzoqhss" class="animable"></path><path d="M359,233.4a1.3,1.3,0,0,1-1-2.11c.4-.5,9.92-12.18,31.24-8.21a1.3,1.3,0,1,1-.47,2.56c-19.71-3.66-28.36,6.82-28.72,7.27A1.32,1.32,0,0,1,359,233.4Z" style="fill: rgb(255, 255, 255); stroke: rgb(38, 50, 56); stroke-linecap: round; stroke-linejoin: round; transform-origin: 374.012px 227.829px;" id="elk9h0xbqhwgs" class="animable"></path><path d="M362,239.69a1.27,1.27,0,0,1-.82-.29,1.3,1.3,0,0,1-.21-1.82c.4-.5,9.93-12.18,31.25-8.21a1.3,1.3,0,1,1-.48,2.56c-19.7-3.66-28.36,6.82-28.72,7.27A1.32,1.32,0,0,1,362,239.69Z" style="fill: rgb(255, 255, 255); stroke: rgb(38, 50, 56); stroke-linecap: round; stroke-linejoin: round; transform-origin: 376.987px 234.119px;" id="elbgay34uoqxq" class="animable"></path><path d="M404.5,238.39s.9-18.54,22.24-20.31c23.22-1.94,25.63,20.31,25.63,20.31Z" style="fill: #FF81AE; stroke: rgb(38, 50, 56); stroke-linecap: round; stroke-linejoin: round; transform-origin: 428.435px 228.175px;" id="elfc2vq4ld3uw" class="animable"></path><path d="M411.27,233.4a1.3,1.3,0,0,1-1-2.11c.39-.5,9.92-12.18,31.24-8.21a1.3,1.3,0,1,1-.48,2.56c-19.7-3.66-28.36,6.82-28.72,7.27A1.32,1.32,0,0,1,411.27,233.4Z" style="fill: rgb(255, 255, 255); stroke: rgb(38, 50, 56); stroke-linecap: round; stroke-linejoin: round; transform-origin: 426.279px 227.829px;" id="elc09sjo5yiue" class="animable"></path><path d="M414.17,239.69a1.26,1.26,0,0,1-.81-.29,1.29,1.29,0,0,1-.21-1.82c.39-.5,9.92-12.18,31.24-8.21a1.31,1.31,0,0,1,1.05,1.52,1.32,1.32,0,0,1-1.53,1c-19.7-3.66-28.36,6.82-28.72,7.27A1.32,1.32,0,0,1,414.17,239.69Z" style="fill: rgb(255, 255, 255); stroke: rgb(38, 50, 56); stroke-linecap: round; stroke-linejoin: round; transform-origin: 429.164px 234.119px;" id="ellwqpnk5tv68" class="animable"></path><path d="M300.05,333.45s.9-18.53,22.24-20.31c23.21-1.94,25.63,20.31,25.63,20.31Z" style="fill: #FF81AE; stroke: rgb(38, 50, 56); stroke-linecap: round; stroke-linejoin: round; transform-origin: 323.985px 323.235px;" id="elya0n1ooxur" class="animable"></path><path d="M306.82,328.47a1.31,1.31,0,0,1-1-2.12c.39-.5,9.91-12.17,31.24-8.21a1.31,1.31,0,0,1-.48,2.57c-19.7-3.67-28.36,6.82-28.72,7.27A1.32,1.32,0,0,1,306.82,328.47Z" style="fill: rgb(255, 255, 255); stroke: rgb(38, 50, 56); stroke-linecap: round; stroke-linejoin: round; transform-origin: 321.793px 322.896px;" id="el70wgxzru7o4" class="animable"></path><path d="M309.72,334.75a1.3,1.3,0,0,1-1-2.11c.39-.5,9.92-12.18,31.24-8.21a1.3,1.3,0,1,1-.48,2.56c-19.7-3.66-28.36,6.82-28.72,7.27A1.32,1.32,0,0,1,309.72,334.75Z" style="fill: rgb(255, 255, 255); stroke: rgb(38, 50, 56); stroke-linecap: round; stroke-linejoin: round; transform-origin: 324.73px 329.179px;" id="elt5xsqhm8gwm" class="animable"></path><path d="M352.27,333.45s.91-18.53,22.25-20.31c23.21-1.94,25.63,20.31,25.63,20.31Z" style="fill: #FF81AE; stroke: rgb(38, 50, 56); stroke-linecap: round; stroke-linejoin: round; transform-origin: 376.21px 323.235px;" id="el4ltf5iw1a1r" class="animable"></path><path d="M359,328.47a1.31,1.31,0,0,1-1-2.12c.4-.5,9.92-12.17,31.24-8.21a1.31,1.31,0,1,1-.47,2.57c-19.71-3.67-28.36,6.82-28.72,7.27A1.32,1.32,0,0,1,359,328.47Z" style="fill: rgb(255, 255, 255); stroke: rgb(38, 50, 56); stroke-linecap: round; stroke-linejoin: round; transform-origin: 374.065px 322.896px;" id="elzosxg4z0y0k" class="animable"></path><path d="M362,334.75a1.3,1.3,0,0,1-1-2.11c.4-.5,9.93-12.18,31.25-8.21a1.3,1.3,0,1,1-.48,2.56c-19.7-3.66-28.36,6.82-28.72,7.27A1.32,1.32,0,0,1,362,334.75Z" style="fill: rgb(255, 255, 255); stroke: rgb(38, 50, 56); stroke-linecap: round; stroke-linejoin: round; transform-origin: 377.015px 329.179px;" id="el4eclezifqfg" class="animable"></path><path d="M404.5,333.45s.9-18.53,22.24-20.31c23.22-1.94,25.63,20.31,25.63,20.31Z" style="fill: #FF81AE; stroke: rgb(38, 50, 56); stroke-linecap: round; stroke-linejoin: round; transform-origin: 428.435px 323.235px;" id="elak7c34xaipb" class="animable"></path><path d="M411.27,328.47a1.32,1.32,0,0,1-.81-.29,1.3,1.3,0,0,1-.21-1.83c.39-.5,9.92-12.17,31.24-8.21a1.31,1.31,0,0,1-.48,2.57c-19.7-3.67-28.36,6.82-28.72,7.27A1.32,1.32,0,0,1,411.27,328.47Z" style="fill: rgb(255, 255, 255); stroke: rgb(38, 50, 56); stroke-linecap: round; stroke-linejoin: round; transform-origin: 426.221px 322.896px;" id="ele8e50mvv4k5" class="animable"></path><path d="M414.17,334.75a1.3,1.3,0,0,1-1-2.11c.39-.5,9.92-12.18,31.24-8.21a1.3,1.3,0,1,1-.48,2.56c-19.7-3.66-28.36,6.82-28.72,7.27A1.32,1.32,0,0,1,414.17,334.75Z" style="fill: rgb(255, 255, 255); stroke: rgb(38, 50, 56); stroke-linecap: round; stroke-linejoin: round; transform-origin: 429.18px 329.179px;" id="elgooaoxt6t18" class="animable"></path><path d="M352.27,428.51s.91-18.53,22.25-20.31c23.21-1.93,25.63,20.31,25.63,20.31Z" style="fill: #FF81AE; stroke: rgb(38, 50, 56); stroke-linecap: round; stroke-linejoin: round; transform-origin: 376.21px 418.296px;" id="elp5vthcz98gb" class="animable"></path><path d="M359,423.53a1.3,1.3,0,0,1-1-2.11c.4-.5,9.92-12.18,31.24-8.21a1.3,1.3,0,1,1-.47,2.56c-19.71-3.66-28.36,6.82-28.72,7.27A1.32,1.32,0,0,1,359,423.53Z" style="fill: rgb(255, 255, 255); stroke: rgb(38, 50, 56); stroke-linecap: round; stroke-linejoin: round; transform-origin: 374.014px 417.959px;" id="elignnlqeuv8q" class="animable"></path><path d="M362,429.82a1.31,1.31,0,0,1-1-2.12c.4-.5,9.93-12.17,31.25-8.21a1.31,1.31,0,0,1-.48,2.57c-19.7-3.67-28.36,6.82-28.72,7.27A1.32,1.32,0,0,1,362,429.82Z" style="fill: rgb(255, 255, 255); stroke: rgb(38, 50, 56); stroke-linecap: round; stroke-linejoin: round; transform-origin: 376.978px 424.246px;" id="el2ze07a0gjxr" class="animable"></path><path d="M299.72,428.51S300.62,410,322,408.2c23.21-1.93,25.63,20.31,25.63,20.31Z" style="fill: #FF81AE; stroke: rgb(38, 50, 56); stroke-linecap: round; stroke-linejoin: round; transform-origin: 323.675px 418.296px;" id="elwh7s5x2bura" class="animable"></path><path d="M306.49,423.53a1.3,1.3,0,0,1-1-2.11c.4-.5,9.92-12.18,31.25-8.21a1.3,1.3,0,0,1-.48,2.56c-19.71-3.66-28.36,6.82-28.72,7.27A1.32,1.32,0,0,1,306.49,423.53Z" style="fill: rgb(255, 255, 255); stroke: rgb(38, 50, 56); stroke-linecap: round; stroke-linejoin: round; transform-origin: 321.502px 417.959px;" id="eljy9y81qo8l" class="animable"></path><path d="M309.39,429.82a1.35,1.35,0,0,1-.82-.29,1.31,1.31,0,0,1-.21-1.83c.4-.5,9.93-12.17,31.25-8.21a1.31,1.31,0,0,1-.48,2.57c-19.7-3.67-28.36,6.82-28.72,7.27A1.32,1.32,0,0,1,309.39,429.82Z" style="fill: rgb(255, 255, 255); stroke: rgb(38, 50, 56); stroke-linecap: round; stroke-linejoin: round; transform-origin: 324.338px 424.246px;" id="els2hkldsnvln" class="animable"></path><path d="M404.5,428.51s.9-18.53,22.24-20.31c23.22-1.93,25.63,20.31,25.63,20.31Z" style="fill: #FF81AE; stroke: rgb(38, 50, 56); stroke-linecap: round; stroke-linejoin: round; transform-origin: 428.435px 418.296px;" id="elozz1b9sbfp" class="animable"></path><path d="M411.27,423.53a1.3,1.3,0,0,1-1-2.11c.39-.5,9.92-12.18,31.24-8.21a1.3,1.3,0,1,1-.48,2.56c-19.7-3.66-28.36,6.82-28.72,7.27A1.32,1.32,0,0,1,411.27,423.53Z" style="fill: rgb(255, 255, 255); stroke: rgb(38, 50, 56); stroke-linecap: round; stroke-linejoin: round; transform-origin: 426.282px 417.959px;" id="elvhesgyzo3j" class="animable"></path><path d="M414.17,429.82a1.32,1.32,0,0,1-.81-.29,1.3,1.3,0,0,1-.21-1.83c.39-.5,9.92-12.17,31.24-8.21a1.31,1.31,0,0,1,1.05,1.52,1.33,1.33,0,0,1-1.53,1.05c-19.7-3.67-28.36,6.82-28.72,7.27A1.32,1.32,0,0,1,414.17,429.82Z" style="fill: rgb(255, 255, 255); stroke: rgb(38, 50, 56); stroke-linecap: round; stroke-linejoin: round; transform-origin: 429.164px 424.246px;" id="el5pn5ulo4433" class="animable"></path><path d="M306.62,118.32h43.91a4.6,4.6,0,0,1,4.6,4.6v20.49a0,0,0,0,1,0,0H302a0,0,0,0,1,0,0V122.92A4.6,4.6,0,0,1,306.62,118.32Z" style="fill: #FF81AE; stroke: rgb(38, 50, 56); stroke-linecap: round; stroke-linejoin: round; transform-origin: 328.565px 130.865px;" id="el8kuieqlih3" class="animable"></path><path d="M315.82,117.49a2.93,2.93,0,1,1-2.93-2.93A2.93,2.93,0,0,1,315.82,117.49Z" style="fill: rgb(38, 50, 56); stroke: rgb(38, 50, 56); stroke-linecap: round; stroke-linejoin: round; transform-origin: 312.89px 117.49px;" id="ely703z07933" class="animable"></path><path d="M333.38,117.49a2.93,2.93,0,1,1-2.93-2.93A2.93,2.93,0,0,1,333.38,117.49Z" style="fill: rgb(38, 50, 56); stroke: rgb(38, 50, 56); stroke-linecap: round; stroke-linejoin: round; transform-origin: 330.45px 117.49px;" id="elhmdr18gbtiq" class="animable"></path><path d="M349.89,118.53a2.93,2.93,0,1,1-2.92-2.92A2.93,2.93,0,0,1,349.89,118.53Z" style="fill: rgb(38, 50, 56); stroke: rgb(38, 50, 56); stroke-linecap: round; stroke-linejoin: round; transform-origin: 346.96px 118.54px;" id="eleesnbiirt2r" class="animable"></path><path d="M350.52,118.32h-43.9a4.6,4.6,0,0,0-4.6,4.6v13.8h5A2.93,2.93,0,0,0,310,133.8v-4.19a2.51,2.51,0,1,1,5,0v4a3.56,3.56,0,0,0,7.11,0V129a2.72,2.72,0,1,1,5.43,0v2.71a3.35,3.35,0,1,0,6.69,0,1.68,1.68,0,0,1,1.68-1.67h.83a2.51,2.51,0,0,1,2.51,2.51v3.55a4.81,4.81,0,0,0,9.62,0V131.5a4.39,4.39,0,0,1,4.39-4.4h1.88v-4.18A4.6,4.6,0,0,0,350.52,118.32Z" style="fill: rgb(255, 255, 255); stroke: rgb(38, 50, 56); stroke-linecap: round; stroke-linejoin: round; transform-origin: 328.58px 129.608px;" id="elica2gwas1ps" class="animable"></path><rect x="294.49" y="142.99" width="68.16" height="3.35" style="fill: rgb(255, 255, 255); stroke: rgb(38, 50, 56); stroke-linecap: round; stroke-linejoin: round; transform-origin: 328.57px 144.665px;" id="elu9ad2zmmkp" class="animable"></rect><path d="M384.79,108.81h61.94a4.6,4.6,0,0,1,4.6,4.6v29a0,0,0,0,1,0,0H380.19a0,0,0,0,1,0,0v-29A4.6,4.6,0,0,1,384.79,108.81Z" style="fill: #FF81AE; stroke: rgb(38, 50, 56); stroke-linecap: round; stroke-linejoin: round; transform-origin: 415.76px 125.61px;" id="elqey47ov16bi" class="animable"></path><circle cx="394.75" cy="107.69" r="3.92" style="fill: rgb(38, 50, 56); stroke: rgb(38, 50, 56); stroke-linecap: round; stroke-linejoin: round; transform-origin: 394.75px 107.69px;" id="elfaz1dfy81l6" class="animable"></circle><circle cx="418.27" cy="107.69" r="3.92" style="fill: rgb(38, 50, 56); stroke: rgb(38, 50, 56); stroke-linecap: round; stroke-linejoin: round; transform-origin: 418.27px 107.69px;" id="elxmg46torbwp" class="animable"></circle><circle cx="440.4" cy="109.09" r="3.92" style="fill: rgb(38, 50, 56); stroke: rgb(38, 50, 56); stroke-linecap: round; stroke-linejoin: round; transform-origin: 440.4px 109.09px;" id="elsdxhn4igtuo" class="animable"></circle><path d="M445.16,108.81H386.35a6.16,6.16,0,0,0-6.16,6.16v18.49h6.72a3.93,3.93,0,0,0,3.92-3.92v-5.6a3.36,3.36,0,1,1,6.72,0v5.32a4.76,4.76,0,1,0,9.52,0v-6.17a3.64,3.64,0,0,1,7.28,0v3.65a4.49,4.49,0,0,0,9,0,2.24,2.24,0,0,1,2.24-2.24h1.12a3.36,3.36,0,0,1,3.36,3.36v4.76a6.44,6.44,0,0,0,12.88,0v-6.16a5.89,5.89,0,0,1,5.88-5.89h2.52V115A6.16,6.16,0,0,0,445.16,108.81Z" style="fill: rgb(255, 255, 255); stroke: rgb(38, 50, 56); stroke-linecap: round; stroke-linejoin: round; transform-origin: 415.77px 123.935px;" id="el22i9jhasyy8" class="animable"></path><rect x="370.1" y="141.86" width="91.3" height="4.48" style="fill: rgb(255, 255, 255); stroke: rgb(38, 50, 56); stroke-linecap: round; stroke-linejoin: round; transform-origin: 415.75px 144.1px;" id="elnvdcuq4p8wc" class="animable"></rect><path d="M286,146V442H466V146ZM456,426.32H296v-61H456Zm0-95H296v-61H456Zm0-95H296v-61H456Z" style="fill: rgb(166, 166, 166); stroke: rgb(38, 50, 56); stroke-linecap: round; stroke-linejoin: round; transform-origin: 376px 294px;" id="elxpps6hn211" class="animable"></path><rect x="32" y="171" width="230" height="271.06" style="fill: rgb(219, 219, 219); stroke: rgb(38, 50, 56); stroke-linecap: round; stroke-linejoin: round; transform-origin: 147px 306.53px;" id="eln7y5i9tkogd" class="animable"></rect><g id="elbly8ckxj1oe"><rect x="33.61" y="227.3" width="226.77" height="11.74" style="opacity: 0.2; transform-origin: 146.995px 233.17px;" class="animable" id="eltgk9g0b8o6"></rect></g><g id="ele8w911xwcqk"><rect x="33.61" y="326.26" width="226.77" height="11.74" style="opacity: 0.2; transform-origin: 146.995px 332.13px;" class="animable" id="elerebb27rbg4"></rect></g><g id="elmyr101hnjck"><rect x="33.61" y="422.99" width="226.77" height="11.74" style="opacity: 0.2; transform-origin: 146.995px 428.86px;" class="animable" id="eltah18hvdszd"></rect></g><path d="M75.67,252.53c-20.2,0-36.57,14.54-36.57,32.47s16.37,32.46,36.57,32.46,36.57-14.53,36.57-32.46S95.87,252.53,75.67,252.53Zm0,39.56c-5.56,0-10.06-3.68-10.06-8.21s4.5-8.21,10.06-8.21,10.06,3.67,10.06,8.21S81.23,292.09,75.67,292.09Z" style="fill: #FF81AE; stroke: rgb(38, 50, 56); stroke-linecap: round; stroke-linejoin: round; transform-origin: 75.67px 284.995px;" id="elloi1ybeo5nt" class="animable"></path><path d="M105.56,275.86a1.5,1.5,0,0,0-1.5,1.5A50.86,50.86,0,0,1,100.84,297c0-1.07,0-2.24,0-3.39.09-8.31.21-20.86-2.4-30.67-.72-2.69-1.57-5.3-3.58-5.15-2.55.18-3.26,4.05-5.19,20.51-1.11,9.49-2.36,20.21-4.19,24.22-.32-1.73-.61-4.53-.87-7.09-.22-2.07-.46-4.36-.76-6.79a9.43,9.43,0,0,1-2.76,2.16c.2,1.74.37,3.41.53,4.93.8,7.7,1.09,10.58,3.18,11a1.84,1.84,0,0,0,.39,0c1.45,0,2.34-1.65,2.73-2.39,2.21-4.14,3.49-15.11,4.73-25.71.71-6.05,1.56-13.29,2.41-16.54.14.41.3.94.48,1.6,2.51,9.41,2.38,21.72,2.3,29.87-.08,7.84-.09,9.7,1.74,10.07,1.65.34,2.44-1.56,3.07-3.09a53.93,53.93,0,0,0,4.39-23.18A1.5,1.5,0,0,0,105.56,275.86Z" style="fill: rgb(255, 255, 255); stroke: rgb(38, 50, 56); stroke-linecap: round; stroke-linejoin: round; transform-origin: 94.08px 282.262px;" id="elfulxqeqfavi" class="animable"></path><path d="M50.8,300.94c.5-2,1.2-6.1,2-10.86,1.08-6.31,2.9-17.06,4.33-21.72.8,4.85.47,12.37.18,19-.49,11.27-.59,15.88,2,16.72,1.86.59,3.42-1.35,4.71-3.33,1.82-2.8,2.93-7.06,3.67-11.88a7.27,7.27,0,0,1-2.11-5,7.59,7.59,0,0,1,3.27-6.05c.12-1.59.22-3.17.33-4.72.36-5.52.86-13,1.9-14.59a12.52,12.52,0,0,1,2.58,3.67,55,55,0,0,1,5,13.86,10.77,10.77,0,0,1,3.41,1.51,61.21,61.21,0,0,0-5.77-16.81c-1.67-3.05-3.54-5.81-5.85-5.3-3,.67-3.49,5.84-4.26,17.46-.62,9.45-1.41,21.2-4.68,26.24a14.64,14.64,0,0,1-1.2,1.62c-.5-2.24-.23-8.52,0-13.25.31-7.06.66-15.06-.33-20.22-.25-1.34-.72-3.82-2.63-3.82h0c-2.41,0-3.61,3.28-7.48,26.1-.25,1.42-.48,2.79-.7,4.05-.35-5.35-.62-12.89-.75-20a1.49,1.49,0,0,0-1.5-1.47h0a1.51,1.51,0,0,0-1.48,1.53c.52,29.06,1.79,29.21,3.26,29.37S50.66,301.52,50.8,300.94Z" style="fill: rgb(255, 255, 255); stroke: rgb(38, 50, 56); stroke-linecap: round; stroke-linejoin: round; transform-origin: 63.7549px 279.783px;" id="elanoecwv3y9e" class="animable"></path><path d="M153.63,252.53c-20.2,0-36.57,14.54-36.57,32.47s16.37,32.46,36.57,32.46S190.2,302.93,190.2,285,173.83,252.53,153.63,252.53Zm0,39.56c-5.56,0-10.07-3.68-10.07-8.21s4.51-8.21,10.07-8.21,10.06,3.67,10.06,8.21S159.19,292.09,153.63,292.09Z" style="fill: #FF81AE; stroke: rgb(38, 50, 56); stroke-linecap: round; stroke-linejoin: round; transform-origin: 153.63px 284.995px;" id="el6erxjs8qscv" class="animable"></path><path d="M183.52,275.86a1.5,1.5,0,0,0-1.5,1.5A50.86,50.86,0,0,1,178.8,297c0-1.07,0-2.24,0-3.39.08-8.31.21-20.86-2.41-30.67-.71-2.69-1.56-5.3-3.57-5.15-2.55.18-3.26,4.05-5.19,20.51-1.11,9.49-2.36,20.21-4.19,24.22-.32-1.73-.61-4.53-.88-7.09-.21-2.07-.45-4.36-.75-6.79a9.43,9.43,0,0,1-2.76,2.16c.2,1.74.37,3.41.53,4.93.8,7.7,1.09,10.58,3.18,11a1.72,1.72,0,0,0,.39,0c1.45,0,2.34-1.65,2.73-2.39,2.21-4.14,3.49-15.11,4.73-25.71.71-6.05,1.56-13.29,2.41-16.54.14.41.3.94.48,1.6,2.51,9.41,2.38,21.72,2.3,29.87-.08,7.84-.1,9.7,1.74,10.07,1.65.34,2.44-1.56,3.07-3.09A53.93,53.93,0,0,0,185,277.36,1.5,1.5,0,0,0,183.52,275.86Z" style="fill: rgb(255, 255, 255); stroke: rgb(38, 50, 56); stroke-linecap: round; stroke-linejoin: round; transform-origin: 172.04px 282.262px;" id="ell0qqxxr234" class="animable"></path><path d="M128.76,300.94c.5-2,1.19-6.1,2-10.86,1.08-6.31,2.9-17.06,4.33-21.72.8,4.85.47,12.37.18,19-.49,11.27-.59,15.88,2,16.72,1.86.59,3.42-1.35,4.71-3.33,1.82-2.8,2.93-7.06,3.67-11.88a7.28,7.28,0,0,1-2.12-5,7.6,7.6,0,0,1,3.28-6.05c.12-1.59.22-3.17.33-4.72.36-5.52.86-13,1.9-14.59a12.52,12.52,0,0,1,2.58,3.67,55,55,0,0,1,5,13.86,10.77,10.77,0,0,1,3.41,1.51,61.21,61.21,0,0,0-5.77-16.81c-1.67-3.05-3.54-5.81-5.85-5.3-3,.67-3.49,5.84-4.26,17.46-.63,9.45-1.41,21.2-4.68,26.24a13.22,13.22,0,0,1-1.21,1.62c-.49-2.24-.22-8.52,0-13.25.31-7.06.66-15.06-.33-20.22-.25-1.34-.72-3.82-2.63-3.82h0c-2.41,0-3.61,3.28-7.48,26.1-.25,1.42-.48,2.79-.7,4.05-.35-5.35-.62-12.89-.75-20a1.49,1.49,0,0,0-1.5-1.47h0a1.51,1.51,0,0,0-1.47,1.53c.52,29.06,1.79,29.21,3.26,29.37S128.62,301.52,128.76,300.94Z" style="fill: rgb(255, 255, 255); stroke: rgb(38, 50, 56); stroke-linecap: round; stroke-linejoin: round; transform-origin: 141.715px 279.783px;" id="eluntbr5rj3x" class="animable"></path><path d="M231.59,252.53c-20.2,0-36.57,14.54-36.57,32.47s16.37,32.46,36.57,32.46,36.57-14.53,36.57-32.46S251.78,252.53,231.59,252.53Zm0,39.56c-5.56,0-10.07-3.68-10.07-8.21s4.51-8.21,10.07-8.21,10.06,3.67,10.06,8.21S237.15,292.09,231.59,292.09Z" style="fill: #FF81AE; stroke: rgb(38, 50, 56); stroke-linecap: round; stroke-linejoin: round; transform-origin: 231.59px 284.995px;" id="ellebi5zfxmb8" class="animable"></path><path d="M261.48,275.86a1.5,1.5,0,0,0-1.5,1.5A50.86,50.86,0,0,1,256.76,297c0-1.07,0-2.24,0-3.39.08-8.31.21-20.86-2.41-30.67-.71-2.69-1.56-5.3-3.57-5.15-2.55.18-3.26,4.05-5.19,20.51-1.11,9.49-2.36,20.21-4.19,24.22-.32-1.73-.61-4.53-.88-7.09-.21-2.07-.45-4.36-.75-6.79a9.43,9.43,0,0,1-2.76,2.16c.2,1.74.37,3.41.53,4.93.8,7.7,1.09,10.58,3.18,11a1.72,1.72,0,0,0,.39,0c1.45,0,2.34-1.65,2.73-2.39,2.21-4.14,3.49-15.11,4.73-25.71.71-6.05,1.56-13.29,2.41-16.54.14.41.3.94.48,1.6,2.51,9.41,2.38,21.72,2.3,29.87-.08,7.84-.1,9.7,1.74,10.07,1.65.34,2.44-1.56,3.07-3.09A53.93,53.93,0,0,0,263,277.36,1.5,1.5,0,0,0,261.48,275.86Z" style="fill: rgb(255, 255, 255); stroke: rgb(38, 50, 56); stroke-linecap: round; stroke-linejoin: round; transform-origin: 250.019px 282.262px;" id="elzawcuq6gx8" class="animable"></path><path d="M206.72,300.94c.5-2,1.19-6.1,2-10.86,1.07-6.31,2.9-17.06,4.33-21.72.8,4.85.47,12.37.18,19-.49,11.27-.59,15.88,2,16.72,1.85.59,3.42-1.35,4.71-3.33,1.82-2.8,2.93-7.06,3.67-11.88a7.28,7.28,0,0,1-2.12-5,7.6,7.6,0,0,1,3.28-6.05c.12-1.59.22-3.17.32-4.72.37-5.52.87-13,1.91-14.59a12.52,12.52,0,0,1,2.58,3.67,55,55,0,0,1,5,13.86,10.87,10.87,0,0,1,3.41,1.51,61.21,61.21,0,0,0-5.77-16.81c-1.67-3.05-3.54-5.81-5.85-5.3-3,.67-3.49,5.84-4.26,17.46-.63,9.45-1.41,21.2-4.68,26.24a13.22,13.22,0,0,1-1.21,1.62c-.49-2.24-.22-8.52,0-13.25.31-7.06.66-15.06-.33-20.22-.25-1.34-.72-3.82-2.63-3.82h0c-2.41,0-3.61,3.28-7.49,26.1-.24,1.42-.47,2.79-.69,4.05-.35-5.35-.62-12.89-.75-20a1.49,1.49,0,0,0-1.5-1.47h0a1.51,1.51,0,0,0-1.47,1.53c.52,29.06,1.79,29.21,3.26,29.37S206.57,301.52,206.72,300.94Z" style="fill: rgb(255, 255, 255); stroke: rgb(38, 50, 56); stroke-linecap: round; stroke-linejoin: round; transform-origin: 219.675px 279.783px;" id="el99txlj7pye" class="animable"></path><path d="M68.66,154.16c-20.19,0-36.57,14.54-36.57,32.47s16.38,32.46,36.57,32.46,36.57-14.53,36.57-32.46S88.86,154.16,68.66,154.16Zm0,39.56c-5.55,0-10.06-3.68-10.06-8.21s4.51-8.21,10.06-8.21,10.07,3.67,10.07,8.21S74.22,193.72,68.66,193.72Z" style="fill: #FF81AE; stroke: rgb(38, 50, 56); stroke-linecap: round; stroke-linejoin: round; transform-origin: 68.66px 186.625px;" id="el2iss6x6u8bd" class="animable"></path><path d="M76,212.61c-3.13,0-6.45-4-8.75-7.41-1.16-1.74-1.78-1.87-1.9-1.88-.48-.06-1.47,1-2.26,1.89-1.52,1.66-3.41,3.72-6.3,4-2.25.19-3.71.09-4.55-1s-.44-2.5.08-4.1a25.29,25.29,0,0,0,1-3.77c.23-1.41,0-1.73,0-1.74-.24-.29-1.7-.29-2.77-.29a22,22,0,0,1-5.54-.52c-2-.49-3.13-1.42-3.51-2.77-.77-2.83,2.47-6.06,6.23-9.79l.83-.83a4.47,4.47,0,0,0,.51-.59,22.84,22.84,0,0,0-5.14-.8,17,17,0,0,1-5.38-.94,2.22,2.22,0,0,1-1.28-1.81c-.1-1.38,1-2.78,3.92-4.82a21.61,21.61,0,0,1,10.57-3.8,14.84,14.84,0,0,0,4-.83c.56-.21.64-.24.21-2.18s-1.08-4.92.94-8.1c1.78-2.79,4-2.94,5.24-2.78,3.75.51,7,5.06,8.34,9.29.32,1,.6,1.23.6,1.23.59-.06,2.39-2,3.47-3.24A27.48,27.48,0,0,1,78,161.54a4.25,4.25,0,0,1,5.23-.1c2.85,2,4.37,7,3.25,10.72a1.74,1.74,0,0,0-.06,1.27c.58.76,3.9.68,6.32.63.88,0,1.79-.05,2.71-.05s3.34,0,4,1.87c.87,2.29-1.78,4.79-6.17,8.68l-.67.59c-2,1.74-2,1.74-1,3.45A26.63,26.63,0,0,1,94,193.46c1.14,3.2.57,6-1.56,7.78-2.45,2-6.41,2.08-9.61.15-.93-.55-1.37-.56-1.43-.53-.54.26-.9,3-1.08,4.52-.13,1-.26,2-.45,3-.54,3-2,3.88-3.17,4.12A3.61,3.61,0,0,1,76,212.61ZM65.28,200.32h.26c1.46.11,2.78,1.13,4.16,3.2,3.55,5.32,5.8,6.18,6.38,6.07.25,0,.61-.53.83-1.72.17-.95.3-1.93.42-2.88.4-3.15.75-5.87,2.75-6.84,1.75-.85,3.65.29,4.28.66,2.07,1.24,4.72,1.29,6.17.1s1.13-3.06.63-4.46a23.05,23.05,0,0,0-2.08-4.34c-1.59-2.73-1.9-4.15,1.55-7.21l.67-.59c1.62-1.44,4.49-4,5.18-5.23a6,6,0,0,0-1.07-.08c-.9,0-1.78,0-2.64,0-4.06.1-7.27.17-8.78-1.81a4.24,4.24,0,0,1-.42-3.94c.79-2.64-.49-6.27-2.1-7.4a1.27,1.27,0,0,0-1.71,0A24.88,24.88,0,0,0,76.65,167c-2.24,2.49-4.17,4.63-6.39,4.14-1.9-.42-2.55-2.55-2.77-3.25-1.13-3.69-3.77-6.92-5.87-7.21-.32,0-1.29-.17-2.31,1.42-1.35,2.14-.94,4-.54,5.85s1,4.48-2.09,5.63a18.16,18.16,0,0,1-4.74,1h0a18.65,18.65,0,0,0-9.1,3.25,16.46,16.46,0,0,0-2.16,1.76c.92.17,2.27.29,3.42.38,3.8.32,7.08.6,7.87,2.77.42,1.15,0,2.4-1.36,3.73l-.85.84c-2.15,2.14-5.76,5.72-5.44,6.86,0,.1.31.4,1.33.66,4.18,1,7.94-.51,9.88,1.78,1,1.23.9,3,.7,4.18a27.66,27.66,0,0,1-1.09,4.2c-.13.4-.28.86-.37,1.2a13.07,13.07,0,0,0,1.75,0c1.71-.14,3-1.59,4.33-3S63.46,200.32,65.28,200.32ZM51.8,173.13h0Z" style="fill: rgb(255, 255, 255); stroke: rgb(38, 50, 56); stroke-linecap: round; stroke-linejoin: round; transform-origin: 68.4393px 185.158px;" id="elbju87do2x1e" class="animable"></path><path d="M149,154.16c-20.2,0-36.57,14.54-36.57,32.47s16.37,32.46,36.57,32.46,36.57-14.53,36.57-32.46S169.17,154.16,149,154.16Zm0,39.56c-5.56,0-10.07-3.68-10.07-8.21s4.51-8.21,10.07-8.21S159,181,159,185.51,154.53,193.72,149,193.72Z" style="fill: #FF81AE; stroke: rgb(38, 50, 56); stroke-linecap: round; stroke-linejoin: round; transform-origin: 149px 186.625px;" id="els5m4qlimx" class="animable"></path><path d="M156.27,212.61c-3.12,0-6.45-4-8.75-7.41-1.16-1.74-1.78-1.87-1.9-1.88-.48-.06-1.47,1-2.26,1.89-1.52,1.66-3.4,3.72-6.29,4-2.25.19-3.72.09-4.56-1s-.44-2.5.08-4.1a25.29,25.29,0,0,0,1-3.77c.24-1.41,0-1.73,0-1.74-.25-.29-1.71-.29-2.77-.29a22,22,0,0,1-5.55-.52c-2-.49-3.13-1.42-3.5-2.77-.78-2.83,2.46-6.06,6.22-9.79l.84-.83a5,5,0,0,0,.5-.59,22.66,22.66,0,0,0-5.14-.8,17,17,0,0,1-5.38-.94,2.22,2.22,0,0,1-1.28-1.81c-.1-1.38,1-2.78,3.92-4.82a21.61,21.61,0,0,1,10.57-3.8,14.84,14.84,0,0,0,4-.83c.57-.21.64-.24.21-2.18s-1.08-4.92.94-8.1c1.78-2.79,4-2.94,5.24-2.78,3.76.51,7,5.06,8.34,9.29.32,1,.6,1.23.6,1.23.59-.06,2.39-2,3.47-3.24a28.14,28.14,0,0,1,3.53-3.48,4.25,4.25,0,0,1,5.23-.1c2.85,2,4.37,7,3.26,10.72a1.71,1.71,0,0,0-.07,1.27c.58.76,3.9.68,6.32.63.88,0,1.79-.05,2.71-.05s3.34,0,4.05,1.87c.87,2.29-1.78,4.79-6.17,8.68l-.66.59c-2,1.74-2,1.74-.95,3.45a27.42,27.42,0,0,1,2.31,4.86c1.14,3.2.58,6-1.56,7.78-2.45,2-6.41,2.08-9.61.15-.93-.55-1.37-.56-1.43-.53-.54.26-.89,3-1.08,4.52-.13,1-.26,2-.45,3-.54,3-2,3.88-3.17,4.12A3.54,3.54,0,0,1,156.27,212.61Zm-10.68-12.29h.26c1.46.11,2.78,1.13,4.16,3.2,3.55,5.32,5.81,6.18,6.38,6.07.25,0,.62-.53.83-1.72.17-.95.3-1.93.42-2.88.4-3.15.75-5.87,2.75-6.84,1.76-.85,3.66.29,4.28.66,2.07,1.24,4.73,1.29,6.17.1s1.13-3.06.63-4.46a23.05,23.05,0,0,0-2.08-4.34c-1.59-2.73-1.89-4.15,1.55-7.21l.67-.59c1.62-1.44,4.5-4,5.18-5.23a6,6,0,0,0-1.07-.08c-.89,0-1.78,0-2.64,0-4.06.1-7.27.17-8.78-1.81a4.24,4.24,0,0,1-.42-3.94c.79-2.64-.49-6.27-2.1-7.4a1.27,1.27,0,0,0-1.71,0A25.57,25.57,0,0,0,157,167c-2.24,2.49-4.17,4.63-6.39,4.14-1.89-.42-2.55-2.55-2.77-3.25-1.13-3.69-3.77-6.92-5.87-7.21-.32,0-1.29-.17-2.3,1.42-1.36,2.14-.95,4-.55,5.85s1,4.48-2.08,5.63a18.23,18.23,0,0,1-4.75,1h0a18.58,18.58,0,0,0-9.1,3.25,16.77,16.77,0,0,0-2.17,1.76c.92.17,2.27.29,3.43.38,3.79.32,7.07.6,7.86,2.77.42,1.15,0,2.4-1.36,3.73l-.84.84c-2.16,2.14-5.77,5.72-5.45,6.86,0,.1.32.4,1.33.66,4.19,1,7.94-.51,9.88,1.78,1,1.23.9,3,.7,4.18a27.66,27.66,0,0,1-1.09,4.2c-.13.4-.28.86-.37,1.2a13,13,0,0,0,1.75,0c1.72-.14,3-1.59,4.33-3S143.77,200.32,145.59,200.32Zm-13.48-27.19h0Z" style="fill: rgb(255, 255, 255); stroke: rgb(38, 50, 56); stroke-linecap: round; stroke-linejoin: round; transform-origin: 148.769px 185.158px;" id="elwchs9r5m15" class="animable"></path><path d="M225.68,154.16c-20.19,0-36.57,14.54-36.57,32.47s16.38,32.46,36.57,32.46,36.57-14.53,36.57-32.46S245.88,154.16,225.68,154.16Zm0,39.56c-5.55,0-10.06-3.68-10.06-8.21s4.51-8.21,10.06-8.21,10.07,3.67,10.07,8.21S231.24,193.72,225.68,193.72Z" style="fill: #FF81AE; stroke: rgb(38, 50, 56); stroke-linecap: round; stroke-linejoin: round; transform-origin: 225.68px 186.625px;" id="eled3x4natcp" class="animable"></path><path d="M233,212.61c-3.13,0-6.45-4-8.76-7.41-1.15-1.74-1.78-1.87-1.89-1.88-.49-.06-1.47,1-2.26,1.89-1.52,1.66-3.41,3.72-6.3,4-2.25.19-3.71.09-4.56-1s-.43-2.5.08-4.1a25.17,25.17,0,0,0,1-3.77c.23-1.41,0-1.73,0-1.74-.24-.29-1.7-.29-2.77-.29a22.07,22.07,0,0,1-5.55-.52c-2-.49-3.12-1.42-3.5-2.77-.78-2.83,2.47-6.06,6.23-9.79l.83-.83a4.47,4.47,0,0,0,.51-.59,22.84,22.84,0,0,0-5.14-.8,16.94,16.94,0,0,1-5.38-.94,2.22,2.22,0,0,1-1.28-1.81c-.1-1.38,1-2.78,3.92-4.82a21.61,21.61,0,0,1,10.57-3.8,14.84,14.84,0,0,0,4-.83c.56-.21.63-.24.21-2.18s-1.08-4.92.94-8.1c1.78-2.79,4-2.94,5.24-2.78,3.75.51,7,5.06,8.34,9.29.32,1,.6,1.23.6,1.23.59-.06,2.39-2,3.47-3.24a27.48,27.48,0,0,1,3.53-3.48,4.24,4.24,0,0,1,5.22-.1c2.86,2,4.38,7,3.26,10.72a1.82,1.82,0,0,0-.07,1.27c.59.76,3.91.68,6.33.63.88,0,1.79-.05,2.71-.05s3.34,0,4.05,1.87c.87,2.29-1.78,4.79-6.18,8.68l-.66.59c-1.95,1.74-1.95,1.74-.95,3.45a27.31,27.31,0,0,1,2.32,4.86c1.14,3.2.57,6-1.56,7.78-2.45,2-6.41,2.08-9.61.15-.93-.55-1.37-.56-1.43-.53-.54.26-.9,3-1.09,4.52-.12,1-.25,2-.44,3-.54,3-2,3.88-3.17,4.12A3.61,3.61,0,0,1,233,212.61ZM222.3,200.32h.26c1.46.11,2.78,1.13,4.16,3.2,3.55,5.32,5.8,6.18,6.38,6.07.25,0,.61-.53.83-1.72.17-.95.3-1.93.42-2.88.4-3.15.75-5.87,2.75-6.84,1.75-.85,3.65.29,4.28.66,2.07,1.24,4.72,1.29,6.17.1s1.13-3.06.63-4.46a23.05,23.05,0,0,0-2.08-4.34c-1.59-2.73-1.9-4.15,1.55-7.21l.67-.59c1.62-1.44,4.49-4,5.17-5.23a5.87,5.87,0,0,0-1.06-.08c-.9,0-1.78,0-2.64,0-4.06.1-7.27.17-8.78-1.81a4.21,4.21,0,0,1-.42-3.94c.79-2.64-.49-6.27-2.1-7.4a1.27,1.27,0,0,0-1.71,0,24.88,24.88,0,0,0-3.11,3.08c-2.24,2.49-4.18,4.63-6.39,4.14-1.9-.42-2.55-2.55-2.77-3.25-1.13-3.69-3.77-6.92-5.87-7.21-.32,0-1.29-.17-2.31,1.42-1.35,2.14-.94,4-.54,5.85s1,4.48-2.09,5.63a18.15,18.15,0,0,1-4.75,1h0a18.65,18.65,0,0,0-9.1,3.25,16.46,16.46,0,0,0-2.16,1.76c.92.17,2.27.29,3.42.38,3.8.32,7.07.6,7.87,2.77.42,1.15,0,2.4-1.36,3.73l-.85.84c-2.15,2.14-5.76,5.72-5.44,6.86,0,.1.31.4,1.33.66,4.18,1,7.94-.51,9.88,1.78,1,1.23.9,3,.7,4.18a28.9,28.9,0,0,1-1.09,4.2c-.13.4-.28.86-.37,1.2a12.91,12.91,0,0,0,1.74,0c1.72-.14,3-1.59,4.34-3S220.48,200.32,222.3,200.32Zm-13.48-27.19h0Z" style="fill: rgb(255, 255, 255); stroke: rgb(38, 50, 56); stroke-linecap: round; stroke-linejoin: round; transform-origin: 225.499px 185.158px;" id="elyjzi9fjngv" class="animable"></path><rect x="29.58" y="203.62" width="234.11" height="29.11" style="fill: rgb(166, 166, 166); stroke: rgb(38, 50, 56); stroke-linecap: round; stroke-linejoin: round; transform-origin: 146.635px 218.175px;" id="elbw42jgje6sg" class="animable"></rect><rect x="114.57" y="206.1" width="27.6" height="12.54" style="fill: rgb(255, 255, 255); stroke: rgb(38, 50, 56); stroke-linecap: round; stroke-linejoin: round; transform-origin: 128.37px 212.37px;" id="elz1b3yjdsic" class="animable"></rect><rect x="29.58" y="302.14" width="234.11" height="29.11" style="fill: rgb(166, 166, 166); stroke: rgb(38, 50, 56); stroke-linecap: round; stroke-linejoin: round; transform-origin: 146.635px 316.695px;" id="el3jclw4p5ucw" class="animable"></rect><rect x="114.57" y="305.2" width="27.6" height="12.54" style="fill: rgb(255, 255, 255); stroke: rgb(38, 50, 56); stroke-linecap: round; stroke-linejoin: round; transform-origin: 128.37px 311.47px;" id="ele8snvf9pacr" class="animable"></rect><path d="M76.46,368.66s-9.59-10.1-19.68-10.1-17.92,6.82-16.4,9.84,11.35,3.79,11.35,3.79-10.09,5.3-8.32,13.12c.51,2.27,5.55,6.06,5.55,6.06s-6.82,2.27-6.56,11.6c.15,5.75,12.87,11.61,12.87,11.61a38.3,38.3,0,0,1-9.09.76c-4.54-.26-1.51,12.61,14.13,11.86s27-4.8,29.52-23.22S76.46,368.66,76.46,368.66Z" style="fill: #FF81AE; stroke: rgb(38, 50, 56); stroke-linecap: round; stroke-linejoin: round; transform-origin: 65.1458px 392.896px;" id="eljllysxa5l1" class="animable"></path><path d="M54.43,412.76a1.93,1.93,0,0,0-.94.93c1.07.56,1.78.89,1.78.89s-.77.17-2,.35a2.3,2.3,0,0,0,.15.49,2,2,0,0,0,2.65,1c.15-.07,12.84-5.68,26.36,3.86a18.86,18.86,0,0,0,2.65-3C69.62,406.05,54.6,412.68,54.43,412.76Z" style="fill: rgb(255, 255, 255); stroke: rgb(38, 50, 56); stroke-linecap: round; stroke-linejoin: round; transform-origin: 69.175px 415.512px;" id="elatb5sjchtg7" class="animable"></path><path d="M46.3,388.65a1.66,1.66,0,0,0-.38.11,37.75,37.75,0,0,0,3,2.61,8.17,8.17,0,0,0-2.17,1.23,2.66,2.66,0,0,0,.28,0c.26-.05,24.07-4.44,42.83,10.81a30.61,30.61,0,0,0,.16-5C70.45,384.18,47.41,388.43,46.3,388.65Z" style="fill: rgb(255, 255, 255); stroke: rgb(38, 50, 56); stroke-linecap: round; stroke-linejoin: round; transform-origin: 67.989px 395.649px;" id="elzzfdt1tauxe" class="animable"></path><path d="M51.73,372.19a20.36,20.36,0,0,0-1.76,1.1,63.87,63.87,0,0,1,33.36,4.8,65.46,65.46,0,0,0-3.88-5.79c-18.37-6.19-33.05-2.49-33.78-2.3a2,2,0,0,0-1.18.89A40.28,40.28,0,0,0,51.73,372.19Z" style="fill: rgb(255, 255, 255); stroke: rgb(38, 50, 56); stroke-linecap: round; stroke-linejoin: round; transform-origin: 63.91px 373.41px;" id="ellcd5dbk74rm" class="animable"></path><path d="M128.46,368.66s-9.59-10.1-19.68-10.1-17.92,6.82-16.4,9.84,11.35,3.79,11.35,3.79-10.09,5.3-8.32,13.12c.51,2.27,5.55,6.06,5.55,6.06s-6.82,2.27-6.56,11.6c.15,5.75,12.87,11.61,12.87,11.61a38.3,38.3,0,0,1-9.09.76c-4.54-.26-1.51,12.61,14.13,11.86s27-4.8,29.52-23.22S128.46,368.66,128.46,368.66Z" style="fill: #FF81AE; stroke: rgb(38, 50, 56); stroke-linecap: round; stroke-linejoin: round; transform-origin: 117.146px 392.896px;" id="elmziiykroukk" class="animable"></path><path d="M106.43,412.76a1.93,1.93,0,0,0-.94.93c1.07.56,1.78.89,1.78.89s-.77.17-2,.35a2.3,2.3,0,0,0,.15.49,2,2,0,0,0,2.65,1c.15-.07,12.84-5.68,26.36,3.86a18.86,18.86,0,0,0,2.65-3C121.62,406.05,106.6,412.68,106.43,412.76Z" style="fill: rgb(255, 255, 255); stroke: rgb(38, 50, 56); stroke-linecap: round; stroke-linejoin: round; transform-origin: 121.175px 415.512px;" id="elcvhks3zl7ar" class="animable"></path><path d="M98.3,388.65a1.66,1.66,0,0,0-.38.11,37.75,37.75,0,0,0,3,2.61,8.17,8.17,0,0,0-2.17,1.23,2.66,2.66,0,0,0,.28,0c.26-.05,24.07-4.44,42.83,10.81a30.61,30.61,0,0,0,.16-5C122.45,384.18,99.41,388.43,98.3,388.65Z" style="fill: rgb(255, 255, 255); stroke: rgb(38, 50, 56); stroke-linecap: round; stroke-linejoin: round; transform-origin: 119.989px 395.649px;" id="elbcetx2vp30l" class="animable"></path><path d="M103.73,372.19a20.36,20.36,0,0,0-1.76,1.1,63.87,63.87,0,0,1,33.36,4.8,65.46,65.46,0,0,0-3.88-5.79c-18.37-6.19-33-2.49-33.78-2.3a2,2,0,0,0-1.18.89A40.28,40.28,0,0,0,103.73,372.19Z" style="fill: rgb(255, 255, 255); stroke: rgb(38, 50, 56); stroke-linecap: round; stroke-linejoin: round; transform-origin: 115.91px 373.41px;" id="elcau3z8dr2ou" class="animable"></path><path d="M180.46,368.66s-9.59-10.1-19.68-10.1-17.92,6.82-16.4,9.84,11.35,3.79,11.35,3.79-10.09,5.3-8.32,13.12c.51,2.27,5.55,6.06,5.55,6.06s-6.82,2.27-6.56,11.6c.15,5.75,12.87,11.61,12.87,11.61a38.3,38.3,0,0,1-9.09.76c-4.54-.26-1.51,12.61,14.13,11.86s27-4.8,29.52-23.22S180.46,368.66,180.46,368.66Z" style="fill: #FF81AE; stroke: rgb(38, 50, 56); stroke-linecap: round; stroke-linejoin: round; transform-origin: 169.146px 392.896px;" id="eldyzhwo64iy" class="animable"></path><path d="M158.43,412.76a1.93,1.93,0,0,0-.94.93c1.07.56,1.78.89,1.78.89s-.77.17-2,.35a2.3,2.3,0,0,0,.15.49,2,2,0,0,0,2.65,1c.15-.07,12.84-5.68,26.36,3.86a18.86,18.86,0,0,0,2.65-3C173.62,406.05,158.6,412.68,158.43,412.76Z" style="fill: rgb(255, 255, 255); stroke: rgb(38, 50, 56); stroke-linecap: round; stroke-linejoin: round; transform-origin: 173.175px 415.512px;" id="el149f3bbl9gan" class="animable"></path><path d="M150.3,388.65a1.66,1.66,0,0,0-.38.11,37.75,37.75,0,0,0,3,2.61,8.17,8.17,0,0,0-2.17,1.23,2.66,2.66,0,0,0,.28,0c.26-.05,24.07-4.44,42.83,10.81a30.61,30.61,0,0,0,.16-5C174.45,384.18,151.41,388.43,150.3,388.65Z" style="fill: rgb(255, 255, 255); stroke: rgb(38, 50, 56); stroke-linecap: round; stroke-linejoin: round; transform-origin: 171.989px 395.649px;" id="el56bvm3v4gqi" class="animable"></path><path d="M155.73,372.19a20.36,20.36,0,0,0-1.76,1.1,63.87,63.87,0,0,1,33.36,4.8,65.46,65.46,0,0,0-3.88-5.79c-18.37-6.19-33-2.49-33.78-2.3a2,2,0,0,0-1.18.89A40.28,40.28,0,0,0,155.73,372.19Z" style="fill: rgb(255, 255, 255); stroke: rgb(38, 50, 56); stroke-linecap: round; stroke-linejoin: round; transform-origin: 167.91px 373.41px;" id="elp0w6rz8oaak" class="animable"></path><path d="M232.46,368.66s-9.59-10.1-19.68-10.1-17.92,6.82-16.4,9.84,11.35,3.79,11.35,3.79-10.09,5.3-8.32,13.12c.51,2.27,5.55,6.06,5.55,6.06s-6.82,2.27-6.56,11.6c.15,5.75,12.87,11.61,12.87,11.61a38.3,38.3,0,0,1-9.09.76c-4.54-.26-1.51,12.61,14.13,11.86s27-4.8,29.52-23.22S232.46,368.66,232.46,368.66Z" style="fill: #FF81AE; stroke: rgb(38, 50, 56); stroke-linecap: round; stroke-linejoin: round; transform-origin: 221.146px 392.896px;" id="elqafoo3dj0kc" class="animable"></path><path d="M210.43,412.76a1.93,1.93,0,0,0-.94.93c1.07.56,1.78.89,1.78.89s-.77.17-2,.35a2.3,2.3,0,0,0,.15.49,2,2,0,0,0,2.65,1c.15-.07,12.84-5.68,26.36,3.86a18.86,18.86,0,0,0,2.65-3C225.62,406.05,210.6,412.68,210.43,412.76Z" style="fill: rgb(255, 255, 255); stroke: rgb(38, 50, 56); stroke-linecap: round; stroke-linejoin: round; transform-origin: 225.175px 415.512px;" id="elas31xi2k39w" class="animable"></path><path d="M202.3,388.65a1.66,1.66,0,0,0-.38.11,37.75,37.75,0,0,0,3,2.61,8.17,8.17,0,0,0-2.17,1.23,2.66,2.66,0,0,0,.28,0c.26-.05,24.07-4.44,42.83,10.81a30.61,30.61,0,0,0,.16-5C226.45,384.18,203.41,388.43,202.3,388.65Z" style="fill: rgb(255, 255, 255); stroke: rgb(38, 50, 56); stroke-linecap: round; stroke-linejoin: round; transform-origin: 223.989px 395.649px;" id="ele9jk6bx7ts" class="animable"></path><path d="M207.73,372.19a20.36,20.36,0,0,0-1.76,1.1,63.87,63.87,0,0,1,33.36,4.8,65.46,65.46,0,0,0-3.88-5.79c-18.37-6.19-33-2.49-33.78-2.3a2,2,0,0,0-1.18.89A40.28,40.28,0,0,0,207.73,372.19Z" style="fill: rgb(255, 255, 255); stroke: rgb(38, 50, 56); stroke-linecap: round; stroke-linejoin: round; transform-origin: 219.91px 373.41px;" id="elouc0lchqcjd" class="animable"></path><rect x="29.58" y="400.65" width="234.11" height="29.11" style="fill: rgb(166, 166, 166); stroke: rgb(38, 50, 56); stroke-linecap: round; stroke-linejoin: round; transform-origin: 146.635px 415.205px;" id="el6o0m8hj0d5k" class="animable"></rect><rect x="114.57" y="404.3" width="27.6" height="12.54" style="fill: rgb(255, 255, 255); stroke: rgb(38, 50, 56); stroke-linecap: round; stroke-linejoin: round; transform-origin: 128.37px 410.57px;" id="eln9nwhe1i2gr" class="animable"></rect><path d="M47.74,300.69Z" style="fill: rgb(255, 255, 255); stroke: rgb(38, 50, 56); stroke-linecap: round; stroke-linejoin: round; transform-origin: 47.74px 300.69px;" id="elot38wfo4ctc" class="animable"></path></g><g id="freepik--Table--inject-2" class="animable" style="transform-origin: 248.335px 441.98px;"><line x1="10.04" y1="441.98" x2="486.63" y2="441.98" style="fill: none; stroke: rgb(38, 50, 56); stroke-linecap: round; stroke-linejoin: round; transform-origin: 248.335px 441.98px;" id="elvl485ckw4f" class="animable"></line></g><g id="freepik--Character--inject-2" class="animable" style="transform-origin: 188.498px 296.656px;"><path d="M239.68,428.51s.91-18.53,22.24-20.31c23.22-1.93,25.63,20.31,25.63,20.31Z" style="fill: rgb(255, 255, 255); stroke: rgb(38, 50, 56); stroke-linecap: round; stroke-linejoin: round; transform-origin: 263.615px 418.296px;" id="elyrwfgx5u6ek" class="animable"></path><path d="M246.45,423.53a1.3,1.3,0,0,1-1-2.11c.39-.5,9.92-12.18,31.24-8.21a1.3,1.3,0,1,1-.48,2.56c-19.7-3.66-28.36,6.82-28.72,7.27A1.32,1.32,0,0,1,246.45,423.53Z" style="fill: rgb(255, 255, 255); stroke: rgb(38, 50, 56); stroke-linecap: round; stroke-linejoin: round; transform-origin: 261.462px 417.959px;" id="els3s0ph4akes" class="animable"></path><path d="M249.35,429.82a1.32,1.32,0,0,1-.81-.29,1.3,1.3,0,0,1-.21-1.83c.39-.5,9.92-12.17,31.24-8.21a1.31,1.31,0,1,1-.48,2.57c-19.7-3.67-28.36,6.82-28.72,7.27A1.32,1.32,0,0,1,249.35,429.82Z" style="fill: rgb(255, 255, 255); stroke: rgb(38, 50, 56); stroke-linecap: round; stroke-linejoin: round; transform-origin: 264.385px 424.246px;" id="elpkygw6l7iep" class="animable"></path><polygon points="228.13 234.82 299.13 320.82 235.63 320.82 228.13 234.82" style="fill: rgb(255, 255, 255); stroke: rgb(38, 50, 56); stroke-linecap: round; stroke-linejoin: round; transform-origin: 263.63px 277.82px;" id="elsvnf8iejdcd" class="animable"></polygon><polygon points="235.07 314.41 267.44 282.43 228.13 234.82 235.07 314.41" style="fill: rgb(255, 255, 255); stroke: rgb(38, 50, 56); stroke-linecap: round; stroke-linejoin: round; transform-origin: 247.785px 274.615px;" id="elg2wn0glx04r" class="animable"></polygon><line x1="259.3" y1="286.28" x2="262.01" y2="283.61" style="fill: none; stroke: rgb(38, 50, 56); stroke-linecap: round; stroke-linejoin: round; transform-origin: 260.655px 284.945px;" id="elnw8ogfxekgm" class="animable"></line><line x1="241.22" y1="304.04" x2="256.23" y2="289.3" style="fill: none; stroke: rgb(38, 50, 56); stroke-linecap: round; stroke-linejoin: round; transform-origin: 248.725px 296.67px;" id="el308d61nkq6c" class="animable"></line><line x1="258.43" y1="281.82" x2="250.54" y2="289.35" style="fill: none; stroke: rgb(38, 50, 56); stroke-linecap: round; stroke-linejoin: round; transform-origin: 254.485px 285.585px;" id="el516sru9gcf2" class="animable"></line><polygon points="133.63 237.32 75.63 265.32 106.63 434.82 250.63 434.82 228.13 234.82 169.63 230.82 133.63 237.32" style="fill: rgb(255, 255, 255); stroke: rgb(38, 50, 56); stroke-linecap: round; stroke-linejoin: round; transform-origin: 163.13px 332.82px;" id="el82d2ues9cf3" class="animable"></polygon><polygon points="104.26 325.94 92.03 354.95 91 348.52 104.26 325.94" style="fill: rgb(38, 50, 56); stroke: rgb(38, 50, 56); stroke-linecap: round; stroke-linejoin: round; transform-origin: 97.63px 340.445px;" id="elav3ucz5mr6q" class="animable"></polygon><path d="M106.63,434.82h144L238.42,326.24c-2.6-7-28.17-75.19-43.58-93.7l-9.58-.65c3.49,5.55,11.73,19.09,16.37,29.93l6,14-62,11.5s-9.16-31.07-18.24-47l-8.66,4.18c3.46,6.51,10.59,21.56,16.4,44.81,8,32,8.5,56.5,8.5,56.5L92,355Z" style="fill: rgb(38, 50, 56); stroke: rgb(38, 50, 56); stroke-linecap: round; stroke-linejoin: round; transform-origin: 171.315px 333.355px;" id="elcr5cdx9az5e" class="animable"></path><ellipse cx="210.06" cy="291.76" rx="7.33" ry="7.66" style="fill: #FF81AE; transform-origin: 210.06px 291.76px;" id="elzy8czwtdksh" class="animable"></ellipse><polygon points="156.63 273.82 169.35 261.1 180.13 263.32 191.87 256.54 206.13 262.82 181.1 240.22 146.84 251.31 156.63 273.82" style="fill: rgb(38, 50, 56); stroke: rgb(38, 50, 56); stroke-linecap: round; stroke-linejoin: round; transform-origin: 176.485px 257.02px;" id="ell9oluzaavwk" class="animable"></polygon><path d="M141.13,219.82s-7.5,1.5-9,4-6,14.5-6.5,16,13.5,15,21,23.5,10,10.5,10,10.5,6-13,7.5-16,16,5.5,16,5.5,4-11,5.5-12.5,20.5,12,20.5,12-15-23-20-31-19-11.5-27.5-15.5S141.13,219.82,141.13,219.82Z" style="fill: rgb(255, 255, 255); stroke: rgb(38, 50, 56); stroke-linecap: round; stroke-linejoin: round; transform-origin: 165.873px 244.483px;" id="eltuafgtgs8oo" class="animable"></path><path d="M197.84,162.85s2.67,12.24,5,26,7.27,29.46,5,32.52S181,226,181,226l-5,31.74s-21.8-15.3-29.45-24.09-9.18-12.24-9.18-12.24l-1.91-45.14S177.56,149.85,197.84,162.85Z" style="fill: rgb(255, 255, 255); stroke: rgb(38, 50, 56); stroke-linecap: round; stroke-linejoin: round; transform-origin: 171.941px 208.497px;" id="ele881k7hf249" class="animable"></path><polygon points="181.01 225.97 161.9 224.96 179.32 236.33 181.01 225.97" style="fill: rgb(38, 50, 56); stroke: rgb(38, 50, 56); stroke-linecap: round; stroke-linejoin: round; transform-origin: 171.455px 230.645px;" id="eldoavkopx11m" class="animable"></polygon><path d="M188.27,166.68l-.38,8s18.36,8.8,17.21,12.24-12.24,7.65-12.24,7.65l1.53,8.42s-6.12,3.44-15.3-.39-8-7.65-8-7.65" style="fill: rgb(255, 255, 255); stroke: rgb(38, 50, 56); stroke-linecap: round; stroke-linejoin: round; transform-origin: 188.096px 185.545px;" id="ely262bfjg7n" class="animable"></path><line x1="173.36" y1="194.22" x2="169.15" y2="196.13" style="fill: none; stroke: rgb(38, 50, 56); stroke-linecap: round; stroke-linejoin: round; transform-origin: 171.255px 195.175px;" id="elx8t8wwunhb" class="animable"></line><path d="M172.21,164.77s-6.5-.39-8.8,8" style="fill: none; stroke: rgb(38, 50, 56); stroke-linecap: round; stroke-linejoin: round; stroke-width: 2px; transform-origin: 167.81px 168.769px;" id="elrrryz1sb4mg" class="animable"></path><path d="M189,163.62s6.12-1.91,8.8,6.12" style="fill: none; stroke: rgb(38, 50, 56); stroke-linecap: round; stroke-linejoin: round; stroke-width: 2px; transform-origin: 193.4px 166.581px;" id="el08grltxtxje7" class="animable"></path><path d="M174.89,174.33l1.91,4.21a9.59,9.59,0,0,1-11.48,1.14" style="fill: none; stroke: rgb(38, 50, 56); stroke-linecap: round; stroke-linejoin: round; transform-origin: 171.06px 177.703px;" id="elf1g7zmr6vam" class="animable"></path><path d="M195.54,173.18l2.3,2.3c-.39,1.91-3.83,2.67-3.83,2.67" style="fill: none; stroke: rgb(38, 50, 56); stroke-linecap: round; stroke-linejoin: round; transform-origin: 195.925px 175.665px;" id="elnutcwnxn51o" class="animable"></path><path d="M173.83,180.74s-.84,1.62-2,1.28.26-.52.26-.52Z" style="fill: rgb(38, 50, 56); stroke: rgb(38, 50, 56); stroke-linecap: round; stroke-linejoin: round; transform-origin: 172.602px 181.403px;" id="el3rydp68ptka" class="animable"></path><path d="M176.8,180.67s-4.08,3.3-8.35,1.56" style="fill: none; stroke: rgb(38, 50, 56); stroke-linecap: round; stroke-linejoin: round; transform-origin: 172.625px 181.703px;" id="el4vzkcz3n7ca" class="animable"></path><path d="M145.43,190.39l4.59-1.53-3.82-13.38-25.07,16.84s6.33,5.34,3.27,10.7-8.42,1.53-8.42,1.53-2.68,6.88,2.3,9.18,8-2.3,8-2.3,1.15,6.12-1.15,6.89l-2.29.76s9.18,6.89,16.06,3.83S143.14,203,142,200.34,138.55,190,145.43,190.39Z" style="fill: rgb(38, 50, 56); stroke: rgb(38, 50, 56); stroke-linecap: round; stroke-linejoin: round; transform-origin: 132.64px 199.587px;" id="elmtgg9mth9u" class="animable"></path><path d="M147.35,193.07s-5.36-12.24-13-9.94.38,19.12,7.27,24.48,9.18-5.74,9.18-5.74" style="fill: rgb(255, 255, 255); stroke: rgb(38, 50, 56); stroke-linecap: round; stroke-linejoin: round; transform-origin: 141.022px 195.957px;" id="ele7k7xyvieds" class="animable"></path><path d="M121.34,194.22s9.18-13.77,35.19-23.72,41.31-7.65,41.31-7.65-3.83-17.59-7.65-22.56S166.47,126.13,160,123.07s-24.48,6.89-32.9,10-16.44,11.86-18,19.51-5,27.15-1.92,31S121.34,194.22,121.34,194.22Z" style="fill: rgb(255, 255, 255); stroke: rgb(38, 50, 56); stroke-linecap: round; stroke-linejoin: round; transform-origin: 151.89px 158.356px;" id="elu89qyxd3wb" class="animable"></path><path d="M109.1,157.5c-.39,1.15.76,20.27,1.91,21.8s9.94,1.91,13.77-3.06,8-13.77,11.86-18.36,16.44-14.53,20.65-18.74,1.91-8.42,1.91-8.42" style="fill: none; stroke: rgb(38, 50, 56); stroke-linecap: round; stroke-linejoin: round; transform-origin: 134.425px 155.518px;" id="elw8mt75s1eml" class="animable"></path><path d="M161.7,143.47c3.49-1,6.84-2.24,7.83-3.57,2.3-3.06-.38-7.26-.38-7.26" style="fill: none; stroke: rgb(38, 50, 56); stroke-linecap: round; stroke-linejoin: round; transform-origin: 166.081px 138.055px;" id="el5cpw4bm97em" class="animable"></path><path d="M152.32,145.64s2.05-.37,4.74-1" style="fill: none; stroke: rgb(38, 50, 56); stroke-linecap: round; stroke-linejoin: round; transform-origin: 154.69px 145.14px;" id="elzifoz4v8l3a" class="animable"></path><path d="M191,156.24a14.47,14.47,0,0,1,2.67.11" style="fill: none; stroke: rgb(38, 50, 56); stroke-linecap: round; stroke-linejoin: round; transform-origin: 192.335px 156.285px;" id="elgut5xddbyqc" class="animable"></path><path d="M122.43,184.22a78.67,78.67,0,0,1,35.24-21.37c13.48-3.87,22.33-5.52,27.87-6.19" style="fill: none; stroke: rgb(38, 50, 56); stroke-linecap: round; stroke-linejoin: round; transform-origin: 153.985px 170.44px;" id="el7dawy80mci8" class="animable"></path><path d="M116.75,191.16a40.33,40.33,0,0,1,2.43-3.26" style="fill: none; stroke: rgb(38, 50, 56); stroke-linecap: round; stroke-linejoin: round; transform-origin: 117.965px 189.53px;" id="elu6h2uhr4hus" class="animable"></path><path d="M88.63,261.32s-12.5,1.5-15,6-46.5,112-46,116.5,42.5,23.5,42.5,23.5l16.5-26.5-10-8.5,32-53" style="fill: rgb(255, 255, 255); stroke: rgb(38, 50, 56); stroke-linecap: round; stroke-linejoin: round; transform-origin: 68.1279px 334.32px;" id="els1um5mmjspb" class="animable"></path><path d="M66.22,331.39a72.63,72.63,0,0,0,25.17,12.44" style="fill: none; stroke: rgb(38, 50, 56); stroke-linecap: round; stroke-linejoin: round; transform-origin: 78.805px 337.61px;" id="el8vaq0vrjnhl" class="animable"></path><path d="M60.57,326.63s.77.77,2.22,2" style="fill: none; stroke: rgb(38, 50, 56); stroke-linecap: round; stroke-linejoin: round; transform-origin: 61.68px 327.63px;" id="elfue5gxef06" class="animable"></path><path d="M80.64,335.59a26.21,26.21,0,0,0,14,5.37" style="fill: none; stroke: rgb(38, 50, 56); stroke-linecap: round; stroke-linejoin: round; transform-origin: 87.64px 338.275px;" id="ely3wwmhkicab" class="animable"></path><path d="M86.63,380.82l-10-8.5L91,348.53C72.76,344.22,57.88,330.72,50.56,323,38.94,351.8,27.37,381.5,27.63,383.82c.5,4.5,42.5,23.5,42.5,23.5Z" style="fill: rgb(255, 255, 255); stroke: rgb(38, 50, 56); stroke-linecap: round; stroke-linejoin: round; transform-origin: 59.3128px 365.16px;" id="elf6eww3wfmr8" class="animable"></path><line x1="57.01" y1="357.81" x2="53.63" y2="355.32" style="fill: none; stroke: rgb(38, 50, 56); stroke-linecap: round; stroke-linejoin: round; transform-origin: 55.32px 356.565px;" id="eldsqdonm2ov6" class="animable"></line><line x1="76.63" y1="372.32" x2="62.32" y2="361.74" style="fill: none; stroke: rgb(38, 50, 56); stroke-linecap: round; stroke-linejoin: round; transform-origin: 69.475px 367.03px;" id="elrve5umtkktk" class="animable"></line><path d="M89.79,378.07a6.45,6.45,0,0,0-7.2-.14,38.45,38.45,0,0,0-13,14.39c-7,13-9,20.5-7.5,24.5s30.5,15,30.5,15,26.5,15.5,32.5,17.5,13,6.5,17.5-3,13.5-41,7-44.5-32.5-9.5-38.5-11C106.68,389.7,95.34,382,89.79,378.07Z" style="fill: #FF81AE; stroke: rgb(38, 50, 56); stroke-linecap: round; stroke-linejoin: round; transform-origin: 106.746px 414.525px;" id="elwzftrxa2ukh" class="animable"></path><path d="M291.63,303.32a30.54,30.54,0,0,0-11.5,18.5c-2.5,12.5,5.5,38.5,34.5,39s37.5-20,34-40-42.5-22.5-45.5-22S291.63,303.32,291.63,303.32Z" style="fill: #FF81AE; stroke: rgb(38, 50, 56); stroke-linecap: round; stroke-linejoin: round; transform-origin: 314.536px 329.797px;" id="elsu9x1wstufj" class="animable"></path><polygon points="180.13 307.32 126.63 453.32 272.63 460.82 319.63 313.82 180.13 307.32" style="fill: rgb(112, 112, 112); stroke: rgb(38, 50, 56); stroke-linecap: round; stroke-linejoin: round; transform-origin: 223.13px 384.07px;" id="elwmw1xkvdy4i" class="animable"></polygon><polygon points="191.13 327.82 140.63 464.82 126.63 453.32 180.13 307.32 191.13 327.82" style="fill: rgb(92, 92, 92); stroke: rgb(38, 50, 56); stroke-linecap: round; stroke-linejoin: round; transform-origin: 158.88px 386.07px;" id="els2ibgsm7j3l" class="animable"></polygon><polygon points="180.13 307.32 191.13 327.82 326.63 336.32 319.63 313.82 180.13 307.32" style="fill: rgb(112, 112, 112); stroke: rgb(38, 50, 56); stroke-linecap: round; stroke-linejoin: round; transform-origin: 253.38px 321.82px;" id="elzghc18vxxfc" class="animable"></polygon><path d="M218.85,319.28c6,6.7.78,20.39-1.3,25.54-6.48,16-20.88,50.33-25.76,67-6,20.5-10,33-15,38.5s-15.5,8-26,.5-2-26.5,3-41,16-37,23-54.5,11.5-34.45,19.5-37.95C202.63,314.6,212.07,311.66,218.85,319.28Z" style="fill: rgb(166, 166, 166); stroke: rgb(38, 50, 56); stroke-linecap: round; stroke-linejoin: round; transform-origin: 183.713px 384.964px;" id="elvytnymb4dqo" class="animable"></path><path d="M157.88,399.17c-1.58,3.84-3,7.45-4.09,10.65l-.54,1.55c4.75-5.34,20.11-19.82,44-15.7.69-1.86,1.41-3.77,2.15-5.71A53.35,53.35,0,0,0,157.88,399.17Z" style="fill: rgb(255, 255, 255); stroke: rgb(38, 50, 56); stroke-linecap: round; stroke-linejoin: round; transform-origin: 176.325px 400.176px;" id="elham264gwg96" class="animable"></path><path d="M148.09,426.46a58.62,58.62,0,0,0-2.09,9.59c6.77-6.39,21.48-16.81,42.38-12.82q.85-2.75,1.75-5.78A53.36,53.36,0,0,0,148.09,426.46Z" style="fill: rgb(255, 255, 255); stroke: rgb(38, 50, 56); stroke-linecap: round; stroke-linejoin: round; transform-origin: 168.065px 426.199px;" id="el4f9kb3trog7" class="animable"></path><path d="M220.63,335.49a52.89,52.89,0,0,0-38.66,6.2c-1.22,3.25-2.47,6.65-3.8,10.1,7.64-6.38,21.65-14.45,40.73-10.51A58.6,58.6,0,0,0,220.63,335.49Z" style="fill: rgb(255, 255, 255); stroke: rgb(38, 50, 56); stroke-linecap: round; stroke-linejoin: round; transform-origin: 199.4px 343.002px;" id="el2osgz33vcoq" class="animable"></path><path d="M170.61,369.94c-1.7,3.9-3.46,7.85-5.19,11.77,6.54-6.32,21.31-17.21,42.51-13.28l2.3-5.67A53,53,0,0,0,170.61,369.94Z" style="fill: rgb(255, 255, 255); stroke: rgb(38, 50, 56); stroke-linecap: round; stroke-linejoin: round; transform-origin: 187.825px 371.651px;" id="elck9ejsdmuuq" class="animable"></path><path d="M260.11,322.36c6,6.7.78,20.39-1.3,25.54-6.47,16-20.88,50.33-25.76,67-6,20.5-10,33-15,38.5s-15.5,8-26,.5-2-26.5,3-41,16-37,23-54.5,11.51-34.45,19.51-37.95C243.89,317.68,253.34,314.74,260.11,322.36Z" style="fill: rgb(166, 166, 166); stroke: rgb(38, 50, 56); stroke-linecap: round; stroke-linejoin: round; transform-origin: 224.973px 388.044px;" id="ela40ep2iwic" class="animable"></path><path d="M199.14,402.25c-1.58,3.84-3,7.45-4.09,10.65-.17.51-.35,1-.54,1.55,4.75-5.34,20.11-19.82,44.05-15.7.69-1.86,1.4-3.77,2.15-5.71A53.36,53.36,0,0,0,199.14,402.25Z" style="fill: rgb(255, 255, 255); stroke: rgb(38, 50, 56); stroke-linecap: round; stroke-linejoin: round; transform-origin: 217.61px 403.253px;" id="elgx3y8ehd8x8" class="animable"></path><path d="M189.35,429.54a58.62,58.62,0,0,0-2.09,9.59c6.77-6.39,21.48-16.81,42.39-12.82q.84-2.74,1.74-5.78A53.32,53.32,0,0,0,189.35,429.54Z" style="fill: rgb(255, 255, 255); stroke: rgb(38, 50, 56); stroke-linecap: round; stroke-linejoin: round; transform-origin: 209.325px 429.278px;" id="eliqa0k2amv7s" class="animable"></path><path d="M261.89,338.57a52.89,52.89,0,0,0-38.66,6.2c-1.21,3.25-2.46,6.65-3.79,10.1,7.64-6.38,21.64-14.45,40.72-10.51A58.6,58.6,0,0,0,261.89,338.57Z" style="fill: rgb(255, 255, 255); stroke: rgb(38, 50, 56); stroke-linecap: round; stroke-linejoin: round; transform-origin: 240.665px 346.082px;" id="elqfky0c101mi" class="animable"></path><path d="M211.88,373c-1.71,3.89-3.47,7.85-5.2,11.77,6.54-6.32,21.32-17.21,42.52-13.28.78-1.92,1.54-3.82,2.3-5.67A53,53,0,0,0,211.88,373Z" style="fill: rgb(255, 255, 255); stroke: rgb(38, 50, 56); stroke-linecap: round; stroke-linejoin: round; transform-origin: 229.09px 374.711px;" id="elsubuy26ydzn" class="animable"></path><path d="M302.61,324.51c6,6.71.77,20.4-1.3,25.54-6.48,16-20.88,50.34-25.76,67-6,20.5-10,33-15,38.5s-15.5,8-26,.5-2-26.5,3-41,16-37,23-54.5,11.5-34.44,19.5-37.94C286.39,319.84,295.83,316.89,302.61,324.51Z" style="fill: rgb(166, 166, 166); stroke: rgb(38, 50, 56); stroke-linecap: round; stroke-linejoin: round; transform-origin: 267.472px 390.196px;" id="els58dmbnk11s" class="animable"></path><path d="M241.64,404.41c-1.58,3.84-3,7.44-4.09,10.64q-.27.76-.54,1.56c4.75-5.35,20.11-19.82,44-15.7q1-2.79,2.15-5.72A53.31,53.31,0,0,0,241.64,404.41Z" style="fill: rgb(255, 255, 255); stroke: rgb(38, 50, 56); stroke-linecap: round; stroke-linejoin: round; transform-origin: 260.085px 405.411px;" id="el8xs97hi7uo" class="animable"></path><path d="M231.85,431.7a57.38,57.38,0,0,0-2.09,9.59c6.77-6.4,21.48-16.82,42.38-12.82q.86-2.76,1.75-5.78A53.31,53.31,0,0,0,231.85,431.7Z" style="fill: rgb(255, 255, 255); stroke: rgb(38, 50, 56); stroke-linecap: round; stroke-linejoin: round; transform-origin: 251.825px 431.438px;" id="elltsyimlwm8b" class="animable"></path><path d="M304.39,340.73a52.84,52.84,0,0,0-38.66,6.2c-1.22,3.24-2.47,6.64-3.8,10.1,7.64-6.38,21.65-14.46,40.72-10.52A55,55,0,0,0,304.39,340.73Z" style="fill: rgb(255, 255, 255); stroke: rgb(38, 50, 56); stroke-linecap: round; stroke-linejoin: round; transform-origin: 283.16px 348.24px;" id="elesue18ir3aq" class="animable"></path><path d="M254.37,375.17c-1.7,3.9-3.46,7.86-5.2,11.78,6.55-6.32,21.32-17.21,42.52-13.28L294,368A53,53,0,0,0,254.37,375.17Z" style="fill: rgb(255, 255, 255); stroke: rgb(38, 50, 56); stroke-linecap: round; stroke-linejoin: round; transform-origin: 271.585px 376.889px;" id="el0zd0h9ys2bok" class="animable"></path><polygon points="319.63 313.82 326.63 336.32 287.13 470.82 272.63 460.82 319.63 313.82" style="fill: rgb(92, 92, 92); stroke: rgb(38, 50, 56); stroke-linecap: round; stroke-linejoin: round; transform-origin: 299.63px 392.32px;" id="el0et84wmgfrro" class="animable"></polygon><polygon points="287.13 470.82 140.63 464.82 126.63 453.32 272.63 460.82 287.13 470.82" style="fill: rgb(69, 69, 69); stroke: rgb(38, 50, 56); stroke-linecap: round; stroke-linejoin: round; transform-origin: 206.88px 462.07px;" id="elljr52bcd7ff" class="animable"></polygon><path d="M290.47,301a5.45,5.45,0,0,0,.13,7.19c4.78,5.21,14.24,14.41,20,12.6,8-2.5,15-9,10-18.5C316,293.48,303.11,285.94,290.47,301Z" style="fill: #FF81AE; stroke: rgb(38, 50, 56); stroke-linecap: round; stroke-linejoin: round; transform-origin: 305.73px 306.712px;" id="el0smu6gnagbc" class="animable"></path></g><g id="freepik--Cake--inject-2" class="animable" style="transform-origin: 413.25px 397.734px;"><polygon points="419.73 447.7 405.72 447.7 407.34 396.19 418.12 396.19 419.73 447.7" style="fill: rgb(255, 255, 255); stroke: rgb(38, 50, 56); stroke-linecap: round; stroke-linejoin: round; transform-origin: 412.725px 421.945px;" id="elr3ox2hcp0qf" class="animable"></polygon><polygon points="418.38 404.57 418.12 396.19 407.34 396.19 407.08 404.57 418.38 404.57" style="fill: rgb(38, 50, 56); stroke: rgb(38, 50, 56); stroke-linecap: round; stroke-linejoin: round; transform-origin: 412.73px 400.38px;" id="elmnsf52msqfe" class="animable"></polygon><rect x="370.35" y="446.58" width="85.81" height="4.89" style="fill: rgb(255, 255, 255); stroke: rgb(38, 50, 56); stroke-linecap: round; stroke-linejoin: round; transform-origin: 413.255px 449.025px;" id="elffy5nlvxew" class="animable"></rect><path d="M386,350.6s-1-4.93,1.27-5.08,5.65,2.68,5.65,2.68,5.5-4.93,7.76-3.38a17.54,17.54,0,0,1,3.95,4.09s2.68-5.78,6.06-4.8,5.37,4.45,5.37,4.45,1.69-4.73,4.51-3.88a5.44,5.44,0,0,1,3.52,3.67s4.08-4.83,7.2-3.53,3.53,3.53,3.53,3.53,1-4.66,4.93-2.4,1.84,11.14,1.84,11.14-6.21-3.67-11.71-1.83-11.29,6.77-19.05,4.37-15.37-5.64-18-4.94-7.48,2.83-9.74,3.53-4.94-3.67-3.67-6.49S386,350.6,386,350.6Z" style="fill: rgb(38, 50, 56); stroke: rgb(38, 50, 56); stroke-linecap: round; stroke-linejoin: round; transform-origin: 410.619px 352.137px;" id="elmltev3q992m" class="animable"></path><rect x="364.05" y="355.28" width="93.67" height="38.98" style="fill: #FF81AE; stroke: rgb(38, 50, 56); stroke-linecap: round; stroke-linejoin: round; transform-origin: 410.885px 374.77px;" id="elvhk1keqxkl" class="animable"></rect><path d="M377.81,382.2c-1.77,0-3.17-.72-5.29-2.18-.37-.26-.77-.54-1.24-.85a4.23,4.23,0,0,0-5.58.61,2.26,2.26,0,0,1-3.31-3.08,8.75,8.75,0,0,1,11.41-1.29l1.3.89c2.7,1.87,2.7,1.87,9.5-.8l1.6-.64c7.91-3.14,9.31-3.42,19.37-.37l1.12.34c9.13,2.78,9.13,2.78,16.27,0,8.71-3.35,10.34-3.34,17.51.07,1.71.81,2.89,1.47,3.76,1.95a8.68,8.68,0,0,0,1.59.78,14.15,14.15,0,0,0,2.58-.9,13.87,13.87,0,0,0,3-1.71c2.21-1.54,4.2-2.52,7.93.06a2.26,2.26,0,1,1-2.58,3.72c-1.43-1-1.43-1-2.75-.07a17.83,17.83,0,0,1-3.92,2.2c-4,1.61-4.72,1.71-8-.12-.86-.47-1.93-1.07-3.52-1.82-5.91-2.82-6.14-2.93-13.93.06-8.35,3.22-9.49,3-19.21.08l-1.12-.33c-8.94-2.71-9.36-2.55-16.39.24l-1.61.64C382.07,381.35,379.72,382.2,377.81,382.2Z" style="fill: rgb(255, 255, 255); stroke: rgb(38, 50, 56); stroke-linecap: round; stroke-linejoin: round; transform-origin: 411.046px 377.265px;" id="eldvo6t2v3cxu" class="animable"></path><path d="M376.31,348.37a5.83,5.83,0,0,0-2.51,6.6c1.25,4.4,10.69,2.51,12.26-2.51S381,344,376.31,348.37Z" style="fill: rgb(255, 255, 255); stroke: rgb(38, 50, 56); stroke-linecap: round; stroke-linejoin: round; transform-origin: 379.928px 351.903px;" id="elvdt25c23czg" class="animable"></path><path d="M380.25,349a.63.63,0,1,1-.62-.63A.62.62,0,0,1,380.25,349Z" style="fill: none; stroke: rgb(38, 50, 56); stroke-linecap: round; stroke-linejoin: round; stroke-width: 0.5px; transform-origin: 379.62px 349px;" id="el3sogpw2gxn2" class="animable"></path><path d="M383.08,352.7a.84.84,0,0,1-.84.83.84.84,0,0,1,0-1.67A.84.84,0,0,1,383.08,352.7Z" style="fill: none; stroke: rgb(38, 50, 56); stroke-linecap: round; stroke-linejoin: round; stroke-width: 0.5px; transform-origin: 382.286px 352.695px;" id="elmvktxg5y838" class="animable"></path><circle cx="377.21" cy="352.47" r="0.86" style="fill: none; stroke: rgb(38, 50, 56); stroke-linecap: round; stroke-linejoin: round; stroke-width: 0.5px; transform-origin: 377.21px 352.47px;" id="el99bw8eltpre" class="animable"></circle><circle cx="380.47" cy="355.51" r="0.57" style="fill: none; stroke: rgb(38, 50, 56); stroke-linecap: round; stroke-linejoin: round; stroke-width: 0.5px; transform-origin: 380.47px 355.51px;" id="elgyiyqv0gx2" class="animable"></circle><path d="M383.91,348.87a.45.45,0,0,1-.46.45.46.46,0,1,1,.46-.45Z" style="fill: none; stroke: rgb(38, 50, 56); stroke-linecap: round; stroke-linejoin: round; stroke-width: 0.5px; transform-origin: 383.45px 348.86px;" id="elonco6nj2uic" class="animable"></path><path d="M376.59,355.1a.52.52,0,1,1-.52-.52A.52.52,0,0,1,376.59,355.1Z" style="fill: none; stroke: rgb(38, 50, 56); stroke-linecap: round; stroke-linejoin: round; stroke-width: 0.5px; transform-origin: 376.07px 355.1px;" id="elvetod4o63np" class="animable"></path><path d="M392.69,346.59a5.84,5.84,0,0,0-2.52,6.61c1.26,4.4,10.69,2.51,12.27-2.52S397.41,342.19,392.69,346.59Z" style="fill: rgb(255, 255, 255); stroke: rgb(38, 50, 56); stroke-linecap: round; stroke-linejoin: round; transform-origin: 396.305px 350.12px;" id="els5hqsmm4nll" class="animable"></path><path d="M396.63,347.26a.63.63,0,1,1-.62-.63A.63.63,0,0,1,396.63,347.26Z" style="fill: none; stroke: rgb(38, 50, 56); stroke-linecap: round; stroke-linejoin: round; stroke-width: 0.5px; transform-origin: 396px 347.26px;" id="elbd5bx3kfemk" class="animable"></path><circle cx="398.62" cy="350.92" r="0.84" style="fill: none; stroke: rgb(38, 50, 56); stroke-linecap: round; stroke-linejoin: round; stroke-width: 0.5px; transform-origin: 398.62px 350.92px;" id="el667h5aootxu" class="animable"></circle><circle cx="393.59" cy="350.7" r="0.86" style="fill: none; stroke: rgb(38, 50, 56); stroke-linecap: round; stroke-linejoin: round; stroke-width: 0.5px; transform-origin: 393.59px 350.7px;" id="el47bnh2uzy03" class="animable"></circle><path d="M397.43,353.73a.58.58,0,1,1-.58-.57A.58.58,0,0,1,397.43,353.73Z" style="fill: none; stroke: rgb(38, 50, 56); stroke-linecap: round; stroke-linejoin: round; stroke-width: 0.5px; transform-origin: 396.85px 353.74px;" id="el8cm9fl0va3n" class="animable"></path><path d="M400.29,347.09a.46.46,0,1,1-.46-.46A.47.47,0,0,1,400.29,347.09Z" style="fill: none; stroke: rgb(38, 50, 56); stroke-linecap: round; stroke-linejoin: round; stroke-width: 0.5px; transform-origin: 399.83px 347.09px;" id="elrwr3g8uin3a" class="animable"></path><path d="M393,353.33a.52.52,0,1,1-.52-.53A.52.52,0,0,1,393,353.33Z" style="fill: none; stroke: rgb(38, 50, 56); stroke-linecap: round; stroke-linejoin: round; stroke-width: 0.5px; transform-origin: 392.48px 353.32px;" id="elb2iege98isp" class="animable"></path><path d="M427.28,346.08a5.83,5.83,0,0,0-2.52,6.6c1.26,4.4,10.69,2.51,12.26-2.52S432,341.68,427.28,346.08Z" style="fill: rgb(255, 255, 255); stroke: rgb(38, 50, 56); stroke-linecap: round; stroke-linejoin: round; transform-origin: 430.89px 349.603px;" id="eldocw2qtt7z6" class="animable"></path><path d="M431.22,346.74a.63.63,0,1,1-.62-.62A.63.63,0,0,1,431.22,346.74Z" style="fill: none; stroke: rgb(38, 50, 56); stroke-linecap: round; stroke-linejoin: round; stroke-width: 0.5px; transform-origin: 430.59px 346.75px;" id="elvfl425npvn9" class="animable"></path><path d="M434.05,350.4a.84.84,0,1,1-.84-.83A.84.84,0,0,1,434.05,350.4Z" style="fill: none; stroke: rgb(38, 50, 56); stroke-linecap: round; stroke-linejoin: round; stroke-width: 0.5px; transform-origin: 433.21px 350.41px;" id="el5tystzc7n5r" class="animable"></path><circle cx="428.18" cy="350.18" r="0.86" style="fill: none; stroke: rgb(38, 50, 56); stroke-linecap: round; stroke-linejoin: round; stroke-width: 0.5px; transform-origin: 428.18px 350.18px;" id="el4ed72kng1i3" class="animable"></circle><path d="M432,353.22a.57.57,0,0,1-.57.57.58.58,0,0,1-.57-.57.57.57,0,0,1,.57-.57A.56.56,0,0,1,432,353.22Z" style="fill: none; stroke: rgb(38, 50, 56); stroke-linecap: round; stroke-linejoin: round; stroke-width: 0.5px; transform-origin: 431.43px 353.22px;" id="elk3shxiq8onr" class="animable"></path><path d="M434.88,346.58a.46.46,0,1,1-.46-.46A.46.46,0,0,1,434.88,346.58Z" style="fill: none; stroke: rgb(38, 50, 56); stroke-linecap: round; stroke-linejoin: round; stroke-width: 0.5px; transform-origin: 434.42px 346.58px;" id="el37vwasbnxt9" class="animable"></path><path d="M427.56,352.81a.52.52,0,1,1-.52-.52A.52.52,0,0,1,427.56,352.81Z" style="fill: none; stroke: rgb(38, 50, 56); stroke-linecap: round; stroke-linejoin: round; stroke-width: 0.5px; transform-origin: 427.04px 352.81px;" id="el1sh8d6w2u2e" class="animable"></path><path d="M413.91,357.05a5.83,5.83,0,0,0,6.32-3.16c2-4.09-6.17-9.08-10.73-6.45S407.46,357.1,413.91,357.05Z" style="fill: rgb(255, 255, 255); stroke: rgb(38, 50, 56); stroke-linecap: round; stroke-linejoin: round; transform-origin: 413.859px 351.93px;" id="elcgcclvz0u5v" class="animable"></path><path d="M411.46,353.89a.63.63,0,1,1,.92.85.64.64,0,0,1-.89,0A.63.63,0,0,1,411.46,353.89Z" style="fill: none; stroke: rgb(38, 50, 56); stroke-linecap: round; stroke-linejoin: round; stroke-width: 0.5px; transform-origin: 411.953px 354.278px;" id="elsf1dxepnipj" class="animable"></path><path d="M411.86,349.28a.83.83,0,0,1,1.18,0,.84.84,0,1,1-1.18,0Z" style="fill: none; stroke: rgb(38, 50, 56); stroke-linecap: round; stroke-linejoin: round; stroke-width: 0.5px; transform-origin: 412.45px 349.876px;" id="el70j1gfh2cqu" class="animable"></path><path d="M415.39,352.84a.87.87,0,0,1,1.22,0,.86.86,0,1,1-1.22,0Z" style="fill: none; stroke: rgb(38, 50, 56); stroke-linecap: round; stroke-linejoin: round; stroke-width: 0.5px; transform-origin: 416px 353.448px;" id="eljhph70c8cyr" class="animable"></path><path d="M415.26,348.59a.57.57,0,1,1,0,.81A.57.57,0,0,1,415.26,348.59Z" style="fill: none; stroke: rgb(38, 50, 56); stroke-linecap: round; stroke-linejoin: round; stroke-width: 0.5px; transform-origin: 415.661px 348.995px;" id="elj6bopgciog" class="animable"></path><path d="M408.65,351.54a.46.46,0,1,1,0,.65A.46.46,0,0,1,408.65,351.54Z" style="fill: none; stroke: rgb(38, 50, 56); stroke-linecap: round; stroke-linejoin: round; stroke-width: 0.5px; transform-origin: 408.976px 351.865px;" id="elkyn1spvlcm" class="animable"></path><path d="M418.26,351.9a.52.52,0,1,1,.77.71.52.52,0,1,1-.77-.71Z" style="fill: none; stroke: rgb(38, 50, 56); stroke-linecap: round; stroke-linejoin: round; stroke-width: 0.5px; transform-origin: 418.645px 352.255px;" id="els4qhpm0eibs" class="animable"></path><path d="M446,357.05a5.83,5.83,0,0,0,6.32-3.16c2.05-4.09-6.17-9.08-10.73-6.45S439.54,357.1,446,357.05Z" style="fill: rgb(255, 255, 255); stroke: rgb(38, 50, 56); stroke-linecap: round; stroke-linejoin: round; transform-origin: 445.954px 351.93px;" id="elk3qdgs1l5tp" class="animable"></path><path d="M443.54,353.89a.63.63,0,1,1,.92.85.64.64,0,0,1-.89,0A.63.63,0,0,1,443.54,353.89Z" style="fill: none; stroke: rgb(38, 50, 56); stroke-linecap: round; stroke-linejoin: round; stroke-width: 0.5px; transform-origin: 444.033px 354.277px;" id="el9ybukh3uvs7" class="animable"></path><path d="M443.94,349.28a.83.83,0,0,1,1.18,0,.84.84,0,1,1-1.18,0Z" style="fill: none; stroke: rgb(38, 50, 56); stroke-linecap: round; stroke-linejoin: round; stroke-width: 0.5px; transform-origin: 444.53px 349.876px;" id="elv6qrfp4iclk" class="animable"></path><path d="M447.47,352.84a.87.87,0,0,1,1.22,0,.85.85,0,0,1,.05,1.21.86.86,0,0,1-1.27-1.16Z" style="fill: none; stroke: rgb(38, 50, 56); stroke-linecap: round; stroke-linejoin: round; stroke-width: 0.5px; transform-origin: 448.107px 353.46px;" id="elckn0dy45wk9" class="animable"></path><path d="M447.34,348.59a.57.57,0,1,1,0,.81A.57.57,0,0,1,447.34,348.59Z" style="fill: none; stroke: rgb(38, 50, 56); stroke-linecap: round; stroke-linejoin: round; stroke-width: 0.5px; transform-origin: 447.741px 348.995px;" id="elnrr5wzo1pv" class="animable"></path><path d="M440.73,351.54a.46.46,0,1,1,0,.65A.46.46,0,0,1,440.73,351.54Z" style="fill: none; stroke: rgb(38, 50, 56); stroke-linecap: round; stroke-linejoin: round; stroke-width: 0.5px; transform-origin: 441.056px 351.865px;" id="elwitxutddqn" class="animable"></path><path d="M450.34,351.9a.52.52,0,0,1,.77.71.52.52,0,1,1-.77-.71Z" style="fill: none; stroke: rgb(38, 50, 56); stroke-linecap: round; stroke-linejoin: round; stroke-width: 0.5px; transform-origin: 450.725px 352.255px;" id="eluvy5a7vhtlp" class="animable"></path><path d="M459.33,354.68c-2.75-3.6-5.72-1.6-7.93-.06a13.87,13.87,0,0,1-3,1.71,14.15,14.15,0,0,1-2.58.9,8.68,8.68,0,0,1-1.59-.78c-.87-.48-2.05-1.14-3.76-1.95-7.17-3.41-8.8-3.42-17.51-.07-7.14,2.75-7.14,2.75-16.27,0l-1.12-.34c-10.06-3.05-11.46-2.77-19.37.37l-1.6.63c-6.8,2.68-6.8,2.67-9.5.8l-1.3-.89a8.75,8.75,0,0,0-11.41,1.29c-1.63,1.79-.78,5.35.12,6.19a2.27,2.27,0,0,0,3.19-.08,4.22,4.22,0,0,1,5.58-.61c.47.3.87.59,1.24.84,2.12,1.47,3.52,2.18,5.29,2.18s4.26-.84,8.45-2.49l1.61-.64c7-2.78,7.45-2.95,16.39-.24l1.12.34c9.72,2.95,10.86,3.14,19.21-.08,7.79-3,8-2.88,13.93-.07,1.59.76,2.66,1.35,3.52,1.83,3.32,1.82,4,1.72,8,.12a18.69,18.69,0,0,0,3.92-2.2c1.32-.92,1.32-.93,2.75.07a2.27,2.27,0,0,0,3.15-.57A5.83,5.83,0,0,0,459.33,354.68Z" style="fill: rgb(255, 255, 255); stroke: rgb(38, 50, 56); stroke-linecap: round; stroke-linejoin: round; transform-origin: 410.99px 358.37px;" id="elg6oes2bdqfk" class="animable"></path><rect x="346.5" y="393.45" width="133.5" height="6.79" style="fill: rgb(255, 255, 255); stroke: rgb(38, 50, 56); stroke-linecap: round; stroke-linejoin: round; transform-origin: 413.25px 396.845px;" id="eloqyac3m1izc" class="animable"></rect></g><defs>     <filter id="active" height="200%">         <feMorphology in="SourceAlpha" result="DILATED" operator="dilate" radius="2"></feMorphology>                <feFlood flood-color="#32DFEC" flood-opacity="1" result="PINK"></feFlood>        <feComposite in="PINK" in2="DILATED" operator="in" result="OUTLINE"></feComposite>        <feMerge>            <feMergeNode in="OUTLINE"></feMergeNode>            <feMergeNode in="SourceGraphic"></feMergeNode>        </feMerge>    </filter>    <filter id="hover" height="200%">        <feMorphology in="SourceAlpha" result="DILATED" operator="dilate" radius="2"></feMorphology>                <feFlood flood-color="#ff0000" flood-opacity="0.5" result="PINK"></feFlood>        <feComposite in="PINK" in2="DILATED" operator="in" result="OUTLINE"></feComposite>        <feMerge>            <feMergeNode in="OUTLINE"></feMergeNode>            <feMergeNode in="SourceGraphic"></feMergeNode>        </feMerge>            <feColorMatrix type="matrix" values="0   0   0   0   0                0   1   0   0   0                0   0   0   0   0                0   0   0   1   0 "></feColorMatrix>    </filter></defs></svg>