<svg xmlns="http://www.w3.org/2000/svg" xmlns:svgjs="http://svgjs.com/svgjs" xmlns:xlink="http://www.w3.org/1999/xlink" id="freepik_stories-printing-invoices" class="animated" version="1.1" viewBox="0 0 500 500"><style>@keyframes lightSpeedRight{60%{transform:skewX(10deg);opacity:1}80%{transform:skewX(-2deg)}}@keyframes floating{0%{opacity:1;transform:translateY(0)}50%{transform:translateY(-10px)}}@keyframes slideUp{0%{opacity:0;transform:translateY(30px)}}svg#freepik_stories-printing-invoices:not(.animated) .animable{opacity:0}svg#freepik_stories-printing-invoices.animated #elfjy4aoyduyr{animation:1s 1 forwards ease-out lightSpeedRight;animation-delay:0s}svg#freepik_stories-printing-invoices.animated #el8rv6exgsusk{animation:1s 1 forwards ease-out lightSpeedRight;animation-delay:.02564102564102564s;opacity:0}svg#freepik_stories-printing-invoices.animated #elnd48ofihkbq{animation:1s 1 forwards ease-out lightSpeedRight;animation-delay:.05128205128205128s;opacity:0}svg#freepik_stories-printing-invoices.animated #elddqxc97tz7r{animation:1s 1 forwards ease-out lightSpeedRight;animation-delay:.07692307692307693s;opacity:0}svg#freepik_stories-printing-invoices.animated #eli57h3tatu4{animation:1s 1 forwards ease-out lightSpeedRight;animation-delay:.10256410256410256s;opacity:0}svg#freepik_stories-printing-invoices.animated #el18j0nmcycpx{animation:1s 1 forwards ease-out lightSpeedRight;animation-delay:.1282051282051282s;opacity:0}svg#freepik_stories-printing-invoices.animated #elo36k7mmy5a{animation:1s 1 forwards ease-out lightSpeedRight;animation-delay:.15384615384615385s;opacity:0}svg#freepik_stories-printing-invoices.animated #elk41hl47esi{animation:1s 1 forwards ease-out lightSpeedRight;animation-delay:.1794871794871795s;opacity:0}svg#freepik_stories-printing-invoices.animated #elx01f5hub0d{animation:1s 1 forwards ease-out lightSpeedRight;animation-delay:.20512820512820512s;opacity:0}svg#freepik_stories-printing-invoices.animated #elu8tw43joslp{animation:1s 1 forwards ease-out lightSpeedRight;animation-delay:.23076923076923075s;opacity:0}svg#freepik_stories-printing-invoices.animated #eldheztnvag6{animation:1s 1 forwards ease-out lightSpeedRight;animation-delay:.2564102564102564s;opacity:0}svg#freepik_stories-printing-invoices.animated #el3bxlu1p0nr5{animation:1s 1 forwards ease-out lightSpeedRight;animation-delay:.28205128205128205s;opacity:0}svg#freepik_stories-printing-invoices.animated #elxsw6ifs6n1{animation:1s 1 forwards ease-out lightSpeedRight;animation-delay:.3076923076923077s;opacity:0}svg#freepik_stories-printing-invoices.animated #elzv8c1rs6kkp{animation:1s 1 forwards ease-out lightSpeedRight;animation-delay:.3333333333333333s;opacity:0}svg#freepik_stories-printing-invoices.animated #elv1g566h858h{animation:1s 1 forwards ease-out lightSpeedRight;animation-delay:.358974358974359s;opacity:0}svg#freepik_stories-printing-invoices.animated #eld4zyaly6nwv{animation:1s 1 forwards ease-out lightSpeedRight;animation-delay:.3846153846153846s;opacity:0}svg#freepik_stories-printing-invoices.animated #elm6uyql3fmri{animation:1s 1 forwards ease-out lightSpeedRight;animation-delay:.41025641025641024s;opacity:0}svg#freepik_stories-printing-invoices.animated #eljsu9ft1kf1o{animation:1s 1 forwards ease-out lightSpeedRight;animation-delay:.4358974358974359s;opacity:0}svg#freepik_stories-printing-invoices.animated #el8wbh1zfku4{animation:1s 1 forwards ease-out lightSpeedRight;animation-delay:.4615384615384615s;opacity:0}svg#freepik_stories-printing-invoices.animated #elb2g9mjn1s7j{animation:1s 1 forwards ease-out lightSpeedRight;animation-delay:.48717948717948717s;opacity:0}svg#freepik_stories-printing-invoices.animated #elru4ue0dcyb{animation:1s 1 forwards ease-out lightSpeedRight;animation-delay:.5128205128205128s;opacity:0}svg#freepik_stories-printing-invoices.animated #el06k2oyk21ice{animation:1s 1 forwards ease-out lightSpeedRight;animation-delay:.5384615384615384s;opacity:0}svg#freepik_stories-printing-invoices.animated #elgn6ekpczz1{animation:1s 1 forwards ease-out lightSpeedRight;animation-delay:.5641025641025641s;opacity:0}svg#freepik_stories-printing-invoices.animated #el3p370wgf12o{animation:1s 1 forwards ease-out lightSpeedRight;animation-delay:.5897435897435898s;opacity:0}svg#freepik_stories-printing-invoices.animated #elwsn1ogdtues{animation:1s 1 forwards ease-out lightSpeedRight;animation-delay:.6153846153846154s;opacity:0}svg#freepik_stories-printing-invoices.animated #elho12m4asabo{animation:1s 1 forwards ease-out lightSpeedRight;animation-delay:.641025641025641s;opacity:0}svg#freepik_stories-printing-invoices.animated #el0urmhkfjajqq{animation:1s 1 forwards ease-out lightSpeedRight;animation-delay:.6666666666666666s;opacity:0}svg#freepik_stories-printing-invoices.animated #elv3c9whw9x1f{animation:1s 1 forwards ease-out lightSpeedRight;animation-delay:.6923076923076923s;opacity:0}svg#freepik_stories-printing-invoices.animated #el7d14l9ncqay{animation:1s 1 forwards ease-out lightSpeedRight;animation-delay:.717948717948718s;opacity:0}svg#freepik_stories-printing-invoices.animated #elazfcjbi8yi7{animation:1s 1 forwards ease-out lightSpeedRight;animation-delay:.7435897435897436s;opacity:0}svg#freepik_stories-printing-invoices.animated #elf5hek9a65i{animation:1s 1 forwards ease-out lightSpeedRight;animation-delay:.7692307692307692s;opacity:0}svg#freepik_stories-printing-invoices.animated #elh4saugh43vo{animation:1s 1 forwards ease-out lightSpeedRight;animation-delay:.7948717948717948s;opacity:0}svg#freepik_stories-printing-invoices.animated #elrp1q6ikkxcl{animation:1s 1 forwards ease-out lightSpeedRight;animation-delay:.8205128205128205s;opacity:0}svg#freepik_stories-printing-invoices.animated #elyfh7mz0j0k9{animation:1s 1 forwards ease-out lightSpeedRight;animation-delay:.8461538461538461s;opacity:0}svg#freepik_stories-printing-invoices.animated #elrrpaa9fh9ao{animation:1s 1 forwards ease-out lightSpeedRight;animation-delay:.8717948717948718s;opacity:0}svg#freepik_stories-printing-invoices.animated #elddea5ogxs5d{animation:1s 1 forwards ease-out lightSpeedRight;animation-delay:.8974358974358974s;opacity:0}svg#freepik_stories-printing-invoices.animated #el8ejormx57gv{animation:1s 1 forwards ease-out lightSpeedRight;animation-delay:.923076923076923s;opacity:0}svg#freepik_stories-printing-invoices.animated #eldgjvqaby2z{animation:1s 1 forwards ease-out lightSpeedRight;animation-delay:.9487179487179487s;opacity:0}svg#freepik_stories-printing-invoices.animated #el6rwhl27rag5{animation:1s 1 forwards ease-out lightSpeedRight;animation-delay:.9743589743589743s;opacity:0}svg#freepik_stories-printing-invoices.animated #freepik--Character--inject-35{animation:1s 1 forwards ease-out lightSpeedRight,1.5s Infinite linear floating;animation-delay:0s,1s}svg#freepik_stories-printing-invoices.animated #el1pjnktd3n2n,svg#freepik_stories-printing-invoices.animated #el6l1icb4yt1a{animation:1s 1 forwards cubic-bezier(.36,-.01,.5,1.38) slideUp;animation-delay:0s}svg#freepik_stories-printing-invoices.animated #el1pjnktd3n2n{animation-delay:.02564102564102564s;opacity:0}svg#freepik_stories-printing-invoices.animated #elld2gidi996{animation-delay:.05128205128205128s}svg#freepik_stories-printing-invoices.animated #el7y1pdvda498,svg#freepik_stories-printing-invoices.animated #elld2gidi996,svg#freepik_stories-printing-invoices.animated #elvk1qw2q06ef{animation:1s 1 forwards cubic-bezier(.36,-.01,.5,1.38) slideUp;opacity:0}svg#freepik_stories-printing-invoices.animated #elvk1qw2q06ef{animation-delay:.07692307692307693s}svg#freepik_stories-printing-invoices.animated #el7y1pdvda498{animation-delay:.10256410256410256s}svg#freepik_stories-printing-invoices.animated #el108zrfusub5{animation:1s 1 forwards cubic-bezier(.36,-.01,.5,1.38) slideUp;animation-delay:.1282051282051282s;opacity:0}svg#freepik_stories-printing-invoices.animated #el963km474hwh{animation-delay:.15384615384615385s}svg#freepik_stories-printing-invoices.animated #el963km474hwh,svg#freepik_stories-printing-invoices.animated #elc1qsedixpi,svg#freepik_stories-printing-invoices.animated #elzqczgc0hdfa{animation:1s 1 forwards cubic-bezier(.36,-.01,.5,1.38) slideUp;opacity:0}svg#freepik_stories-printing-invoices.animated #elzqczgc0hdfa{animation-delay:.1794871794871795s}svg#freepik_stories-printing-invoices.animated #elc1qsedixpi{animation-delay:.20512820512820512s}svg#freepik_stories-printing-invoices.animated #el49tqocjnjj3,svg#freepik_stories-printing-invoices.animated #elbxe21v3cwgh{animation:1s 1 forwards cubic-bezier(.36,-.01,.5,1.38) slideUp;opacity:0}svg#freepik_stories-printing-invoices.animated #elbxe21v3cwgh{animation-delay:.23076923076923075s}svg#freepik_stories-printing-invoices.animated #el49tqocjnjj3{animation-delay:.2564102564102564s}svg#freepik_stories-printing-invoices.animated #ele1507i6ql45{animation:1s 1 forwards cubic-bezier(.36,-.01,.5,1.38) slideUp;animation-delay:.28205128205128205s;opacity:0}svg#freepik_stories-printing-invoices.animated #elf5wtk2wbwwt,svg#freepik_stories-printing-invoices.animated #elvu1u51n49zj{animation:1s 1 forwards cubic-bezier(.36,-.01,.5,1.38) slideUp;opacity:0;animation-delay:.3076923076923077s}svg#freepik_stories-printing-invoices.animated #elf5wtk2wbwwt{animation-delay:.3333333333333333s}svg#freepik_stories-printing-invoices.animated #elfvry41ov2st,svg#freepik_stories-printing-invoices.animated #elqhzu4h1xok{animation:1s 1 forwards cubic-bezier(.36,-.01,.5,1.38) slideUp;opacity:0;animation-delay:.358974358974359s}svg#freepik_stories-printing-invoices.animated #elfvry41ov2st{animation-delay:.3846153846153846s}svg#freepik_stories-printing-invoices.animated #elj3asi5ovgqf{animation-delay:.41025641025641024s}svg#freepik_stories-printing-invoices.animated #el6htwn3deon,svg#freepik_stories-printing-invoices.animated #elb50misu5vmg,svg#freepik_stories-printing-invoices.animated #elj3asi5ovgqf{animation:1s 1 forwards cubic-bezier(.36,-.01,.5,1.38) slideUp;opacity:0}svg#freepik_stories-printing-invoices.animated #elb50misu5vmg{animation-delay:.4358974358974359s}svg#freepik_stories-printing-invoices.animated #el6htwn3deon{animation-delay:.4615384615384615s}svg#freepik_stories-printing-invoices.animated #el79pmej1wdqk{animation:1s 1 forwards cubic-bezier(.36,-.01,.5,1.38) slideUp;animation-delay:.48717948717948717s;opacity:0}svg#freepik_stories-printing-invoices.animated #elft3izs3mh4b{animation-delay:.5128205128205128s}svg#freepik_stories-printing-invoices.animated #elft3izs3mh4b,svg#freepik_stories-printing-invoices.animated #elpy5s3ctgnvl,svg#freepik_stories-printing-invoices.animated #elswljcemgz6f{animation:1s 1 forwards cubic-bezier(.36,-.01,.5,1.38) slideUp;opacity:0}svg#freepik_stories-printing-invoices.animated #elswljcemgz6f{animation-delay:.5384615384615384s}svg#freepik_stories-printing-invoices.animated #elpy5s3ctgnvl{animation-delay:.5641025641025641s}svg#freepik_stories-printing-invoices.animated #el3c15qc6llag{animation:1s 1 forwards cubic-bezier(.36,-.01,.5,1.38) slideUp;animation-delay:.5897435897435898s;opacity:0}svg#freepik_stories-printing-invoices.animated #el3808y7ecjih,svg#freepik_stories-printing-invoices.animated #elw4y074iuaa{animation:1s 1 forwards cubic-bezier(.36,-.01,.5,1.38) slideUp;opacity:0;animation-delay:.6153846153846154s}svg#freepik_stories-printing-invoices.animated #el3808y7ecjih{animation-delay:.641025641025641s}svg#freepik_stories-printing-invoices.animated #elo5t0hn6f59{animation-delay:.6666666666666666s}svg#freepik_stories-printing-invoices.animated #elhi67za0ae86,svg#freepik_stories-printing-invoices.animated #elo5t0hn6f59,svg#freepik_stories-printing-invoices.animated #elwffx5kz036s{animation:1s 1 forwards cubic-bezier(.36,-.01,.5,1.38) slideUp;opacity:0}svg#freepik_stories-printing-invoices.animated #elwffx5kz036s{animation-delay:.6923076923076923s}svg#freepik_stories-printing-invoices.animated #elhi67za0ae86{animation-delay:.717948717948718s}svg#freepik_stories-printing-invoices.animated #ellprbipdv9d{animation:1s 1 forwards cubic-bezier(.36,-.01,.5,1.38) slideUp;animation-delay:.7435897435897436s;opacity:0}svg#freepik_stories-printing-invoices.animated #elk68jbx6fas,svg#freepik_stories-printing-invoices.animated #elspi0bv7s7a{animation:1s 1 forwards cubic-bezier(.36,-.01,.5,1.38) slideUp;opacity:0;animation-delay:.7692307692307692s}svg#freepik_stories-printing-invoices.animated #elk68jbx6fas{animation-delay:.7948717948717948s}svg#freepik_stories-printing-invoices.animated #el4gjob47uf7w,svg#freepik_stories-printing-invoices.animated #elq8072o7uzy{animation:1s 1 forwards cubic-bezier(.36,-.01,.5,1.38) slideUp;opacity:0;animation-delay:.8205128205128205s}svg#freepik_stories-printing-invoices.animated #el4gjob47uf7w{animation-delay:.8461538461538461s}svg#freepik_stories-printing-invoices.animated #ele0hu6usumgg{animation-delay:.8717948717948718s}svg#freepik_stories-printing-invoices.animated #ele0hu6usumgg,svg#freepik_stories-printing-invoices.animated #eley925mtbnce,svg#freepik_stories-printing-invoices.animated #elxcx7xpift{animation:1s 1 forwards cubic-bezier(.36,-.01,.5,1.38) slideUp;opacity:0}svg#freepik_stories-printing-invoices.animated #elxcx7xpift{animation-delay:.8974358974358974s}svg#freepik_stories-printing-invoices.animated #eley925mtbnce{animation-delay:.923076923076923s}svg#freepik_stories-printing-invoices.animated #elcmttu2sgwfh,svg#freepik_stories-printing-invoices.animated #elsp28bc507os{animation:1s 1 forwards cubic-bezier(.36,-.01,.5,1.38) slideUp;opacity:0}svg#freepik_stories-printing-invoices.animated #elsp28bc507os{animation-delay:.9487179487179487s}svg#freepik_stories-printing-invoices.animated #elcmttu2sgwfh{animation-delay:.9743589743589743s}svg#freepik_stories-printing-invoices.animated #freepik--Printer--inject-35{animation:1s 1 forwards cubic-bezier(.36,-.01,.5,1.38) slideUp,1.5s Infinite linear floating;animation-delay:0s,1s}</style><g id="freepik--background-complete--inject-35" class="animable animator-active" style="transform-origin:250px 228.23px"><rect style="fill:#ebebeb;transform-origin:250px 382.525px" id="els7dmigd6mhg" width="500" height=".25" y="382.4" class="animable"/><path style="fill:#ebebeb;transform-origin:140.46px 196.4px" id="elwpz6twr04v" d="M237,337.8H43.91a5.71,5.71,0,0,1-5.7-5.71V60.66A5.71,5.71,0,0,1,43.91,55H237a5.71,5.71,0,0,1,5.71,5.71V332.09A5.71,5.71,0,0,1,237,337.8ZM43.91,55.2a5.46,5.46,0,0,0-5.45,5.46V332.09a5.46,5.46,0,0,0,5.45,5.46H237a5.47,5.47,0,0,0,5.46-5.46V60.66A5.47,5.47,0,0,0,237,55.2Z" class="animable"/><path style="fill:#ebebeb;transform-origin:356.75px 196.4px" id="el13wjk5o9vfs" d="M453.31,337.8H260.21a5.72,5.72,0,0,1-5.71-5.71V60.66A5.72,5.72,0,0,1,260.21,55h193.1A5.71,5.71,0,0,1,459,60.66V332.09A5.71,5.71,0,0,1,453.31,337.8ZM260.21,55.2a5.47,5.47,0,0,0-5.46,5.46V332.09a5.47,5.47,0,0,0,5.46,5.46h193.1a5.47,5.47,0,0,0,5.46-5.46V60.66a5.47,5.47,0,0,0-5.46-5.46Z" class="animable"/><rect style="fill:#ebebeb;transform-origin:436.9px 398.615px" id="elkfcmkxpkqir" width="26" height=".25" x="423.9" y="398.49" class="animable"/><rect style="fill:#ebebeb;transform-origin:333.515px 401.335px" id="elym4bd40ylr" width="45.03" height=".25" x="311" y="401.21" class="animable"/><rect style="fill:#ebebeb;transform-origin:392.505px 389.335px" id="elzsv4afu2y4e" width="60.79" height=".25" x="362.11" y="389.21" class="animable"/><rect style="fill:#ebebeb;transform-origin:62.075px 391.015px" id="el76d6phkn8tm" width="19.23" height=".25" x="52.46" y="390.89" class="animable"/><rect style="fill:#ebebeb;transform-origin:108.245px 391.015px" id="elymuz7uq6nv" width="55.29" height=".25" x="80.6" y="390.89" class="animable"/><rect style="fill:#ebebeb;transform-origin:206.905px 395.235px" id="elx3dji5ny5do" width="74.47" height=".25" x="169.67" y="395.11" class="animable"/><rect style="fill:#fafafa;transform-origin:177.975px 157.53px" id="el9efnz3r6gna" width="200.95" height="144.26" x="77.5" y="85.4" class="animable"/><polygon style="fill:#fff;transform-origin:167.79px 157.525px" id="el5g1nvm4h1g7" points="131.38 229.66 165.84 85.39 204.2 85.39 169.74 229.66 131.38 229.66" class="animable"/><polygon style="fill:#fff;transform-origin:230.525px 157.525px" id="elg8xe82cawv8" points="206.3 229.66 240.76 85.39 254.75 85.39 220.29 229.66 206.3 229.66" class="animable"/><polygon style="fill:#fff;transform-origin:138px 157.525px" id="elcm4j7v9kjvs" points="118.14 229.66 152.61 85.39 157.86 85.39 123.4 229.66 118.14 229.66" class="animable"/><path style="fill:#e0e0e0;transform-origin:177.96px 81.325px" id="ele655r3hgozi" d="M288,80.43H67.92a.9.9,0,0,0-.9.9h0a.89.89,0,0,0,.9.89H288a.9.9,0,0,0,.9-.89h0A.91.91,0,0,0,288,80.43Z" class="animable"/><g id="elktw22grl4lc"><rect width="8.57" height="144.88" x="174.58" y="85.08" class="animable" style="fill:#f0f0f0;transform-origin:178.865px 157.52px;transform:rotate(180deg)"/></g><g id="elej1cnnx8w8q"><rect width=".96" height="144.88" x="183.15" y="85.08" class="animable" style="fill:#e0e0e0;transform-origin:183.63px 157.52px;transform:rotate(180deg)"/></g><g id="elvx9cbg9ffw"><rect width="2.38" height="203.73" x="176.78" y="55.66" class="animable" style="fill:#f0f0f0;transform-origin:177.97px 157.525px;transform:rotate(-90deg)"/></g><path style="fill:#f0f0f0;transform-origin:177.975px 157.5px" id="el7krl8yz7dvu" d="M279.84,228.66h0V84H76.11V228.66h0V231H279.84Zm-201.35,0V86.39h199V228.66Z" class="animable"/><g id="elfpggw1hgph"><rect width="1.19" height="147.04" x="279.84" y="84.01" class="animable" style="fill:#e0e0e0;transform-origin:280.435px 157.53px;transform:rotate(180deg)"/></g><g id="elxnudbsswb8r"><polygon points="244.39 78.25 244.39 317.85 294.62 317.85 285.41 78.25 244.39 78.25" class="animable" style="fill:#ebebeb;opacity:.5;transform-origin:269.505px 198.05px"/></g><g id="elfmotab3yemc"><polygon points="209.53 78.25 209.53 317.85 259.76 317.85 250.55 78.25 209.53 78.25" class="animable" style="fill:#ebebeb;opacity:.5;transform-origin:234.645px 198.05px"/></g><g id="elqzlzvpz5zfo"><polygon points="93.42 78.25 93.42 317.85 62.52 317.85 68.19 78.25 93.42 78.25" class="animable" style="fill:#ebebeb;opacity:.5;transform-origin:77.97px 198.05px"/></g><g id="ells8asft97ga"><polygon points="114.87 78.25 114.87 317.85 83.97 317.85 89.63 78.25 114.87 78.25" class="animable" style="fill:#ebebeb;opacity:.5;transform-origin:99.42px 198.05px"/></g><g id="elg61rv78vbp4"><rect width="22.17" height="152.26" x="188.18" y="230.14" class="animable" style="fill:#e6e6e6;transform-origin:199.265px 306.27px;transform:rotate(180deg)"/></g><polygon style="fill:#f0f0f0;transform-origin:196.175px 367.93px" id="elvy78ouqewj" points="195.99 382.4 188.18 382.4 188.18 353.46 204.17 353.46 195.99 382.4" class="animable"/><g id="eldkx194by4av"><rect width="22.17" height="152.26" x="422.67" y="230.14" class="animable" style="fill:#e6e6e6;transform-origin:433.755px 306.27px;transform:rotate(180deg)"/></g><g id="elb1pl3sk34bw"><rect width="241.3" height="144.36" x="188.18" y="230.14" class="animable" style="fill:#f0f0f0;transform-origin:308.83px 302.32px;transform:rotate(180deg)"/></g><polygon style="fill:#f0f0f0;transform-origin:421.485px 367.93px" id="elg8er4dci3qm" points="421.67 382.4 429.48 382.4 429.48 353.46 413.49 353.46 421.67 382.4" class="animable"/><g id="elki2gsg5d11m"><rect width="119.42" height="71.53" x="325.98" y="266.04" class="animable" style="fill:#e6e6e6;transform-origin:385.69px 301.805px;transform:rotate(-90deg)"/></g><path style="fill:#f0f0f0;transform-origin:385.685px 243.236px" id="ela982mzoywn6" d="M378.62,246.29h14.15A24,24,0,0,0,409,240.18H362.37A24,24,0,0,0,378.62,246.29Z" class="animable"/><g id="elzutv2n16qfe"><rect width="119.42" height="71.53" x="249.12" y="266.04" class="animable" style="fill:#e6e6e6;transform-origin:308.83px 301.805px;transform:rotate(-90deg)"/></g><path style="fill:#f0f0f0;transform-origin:308.09px 243.236px" id="elke5q9gnyb6m" d="M301,246.29h14.15a24,24,0,0,0,16.25-6.11H284.78A24,24,0,0,0,301,246.29Z" class="animable"/><g id="elexqw4gtixod"><rect width="119.42" height="71.53" x="172.26" y="266.04" class="animable" style="fill:#e6e6e6;transform-origin:231.97px 301.805px;transform:rotate(-90deg)"/></g><path style="fill:#f0f0f0;transform-origin:231.245px 243.236px" id="el8nqou40su4e" d="M224.17,246.29h14.15a24,24,0,0,0,16.25-6.11H207.92A24,24,0,0,0,224.17,246.29Z" class="animable"/><path style="fill:#e6e6e6;transform-origin:399.255px 216.325px" id="elaslbmynj1c" d="M436,202.51H362.51s.67,18.94,21.74,25.19v2.44h30V227.7C435.35,221.45,436,202.51,436,202.51Z" class="animable"/><rect style="fill:#f0f0f0;transform-origin:368.025px 133.91px" id="elx9j3zkohmxf" width="96.13" height="102.94" x="319.96" y="82.44" class="animable"/><g id="elqkeef3ldac"><rect width="3.18" height="102.94" x="416.09" y="82.44" class="animable" style="fill:#e0e0e0;transform-origin:417.68px 133.91px;transform:rotate(180deg)"/></g><rect style="fill:#fff;transform-origin:368.03px 133.9px" id="elu0ofk97hyj8" width="63.62" height="85.28" x="336.22" y="91.26" class="animable"/></g><g id="freepik--Shadow--inject-35" class="animable" style="transform-origin:250px 416.24px"><ellipse id="freepik--path--inject-35" cx="250" cy="416.24" class="animable" rx="193.89" ry="11.32" style="fill:#f5f5f5;transform-origin:250px 416.24px"/></g><g id="freepik--Character--inject-35" class="animable" style="transform-origin:350.597px 260.12px"><polygon style="fill:#ff8b7b;transform-origin:363.505px 402.82px" id="elfjy4aoyduyr" points="367.85 412.33 359.71 412.2 359.16 393.31 367.3 393.44 367.85 412.33" class="animable"/><path style="fill:#407bff;transform-origin:358.684px 411.519px" id="el8rv6exgsusk" d="M359.43,406.82l8.89.14a.68.68,0,0,1,.66.57l1.18,7.26a1.24,1.24,0,0,1-1.25,1.43c-3.21-.1-7.83-.36-11.86-.43-4.71-.07-1,.12-6.52,0-3.34-.06-4.07-3.45-2.65-3.73,6.44-1.3,6.77-2.74,9.56-4.67A3.39,3.39,0,0,1,359.43,406.82Z" class="animable"/><path style="fill:#ff8b7b;transform-origin:314.355px 188.947px" id="elnd48ofihkbq" d="M336.36,168.16c-.7,2.76-1.51,5.27-2.35,7.88s-1.78,5.13-2.76,7.68a109.91,109.91,0,0,1-7.13,15c-.34.62-.73,1.22-1.11,1.83l-.58.91-.28.46c-.09.14-.26.36-.38.54a19.35,19.35,0,0,1-3.66,3.92,26.7,26.7,0,0,1-8.46,4.52,39.55,39.55,0,0,1-8.58,1.8c-1.42.16-2.84.22-4.25.24a39.69,39.69,0,0,1-4.31-.17l-.16-6.12A55.3,55.3,0,0,0,306,202a19.82,19.82,0,0,0,5-3.62,10,10,0,0,0,1.48-2l.16-.28.21-.4.42-.8c.27-.53.56-1,.81-1.61a134.24,134.24,0,0,0,5.67-13.88c.86-2.39,1.65-4.81,2.46-7.23s1.54-4.92,2.25-7.23Z" class="animable"/><path style="fill:#ff8b7b;transform-origin:290.22px 210.469px" id="elddqxc97tz7r" d="M294.28,206.7l-9.24-1,.44,9.28s7,1.7,9.92-3.64Z" class="animable"/><path style="fill:#ff8b7b;transform-origin:281.386px 210.39px" id="eli57h3tatu4" d="M277.43,209.81l1.71,4a1.84,1.84,0,0,0,1.65,1.11l4.69.11-.44-9.28-6.29,1.49A1.91,1.91,0,0,0,277.43,209.81Z" class="animable"/><g id="el18j0nmcycpx"><polygon points="359.16 393.31 359.44 403.05 367.58 403.18 367.3 393.44 359.16 393.31" class="animable" style="opacity:.2;transform-origin:363.37px 398.245px"/></g><path style="fill:#407bff;transform-origin:330.702px 170.773px" id="elo36k7mmy5a" d="M328.1,157.84c-4.37,5.49-8.35,16-10,22,4.85,8.07,14.35,6.66,14.35,6.66s7.86-6.22,10.43-13.66S335.82,148.13,328.1,157.84Z" class="animable"/><path style="fill:#407bff;transform-origin:353.209px 185.801px" id="elk41hl47esi" d="M378.58,159c1.93,14.06-1,32.35,1.22,59l-43.54,2.76c-7.92-33.81-8.77-48-9.61-57.33a8.54,8.54,0,0,1,5.27-8.65c10.26-4.25,27.86-4.88,39.95-2.75A8.19,8.19,0,0,1,378.58,159Z" class="animable"/><path style="fill:#fff;transform-origin:347.36px 170.99px" id="elx01f5hub0d" d="M346.81,168.35a11.17,11.17,0,0,0-9.56,5.28h20.22A14.16,14.16,0,0,0,346.81,168.35Z" class="animable"/><path style="fill:#fff;transform-origin:347.745px 175.89px" id="elu8tw43joslp" d="M358.08,174.39H336.8a13.11,13.11,0,0,0-1.15,3h24.19A16.2,16.2,0,0,0,358.08,174.39Z" class="animable"/><path style="fill:#fff;transform-origin:348.14px 179.7px" id="eldheztnvag6" d="M360.28,178.35H335.43a14.84,14.84,0,0,0-.22,2.7h25.86A17.16,17.16,0,0,0,360.28,178.35Z" class="animable"/><path style="fill:#fff;transform-origin:349.49px 195.035px" id="el3bxlu1p0nr5" d="M345.25,195.9h8.88a10.92,10.92,0,0,0,2.85-1.73H342A14.25,14.25,0,0,0,345.25,195.9Z" class="animable"/><path style="fill:#fff;transform-origin:349.095px 191.19px" id="elxsw6ifs6n1" d="M339.76,192.19h19.09a12.58,12.58,0,0,0,1.19-2H338.15A17.06,17.06,0,0,0,339.76,192.19Z" class="animable"/><path style="fill:#fff;transform-origin:348.68px 187.365px" id="elzv8c1rs6kkp" d="M337.09,188.47h23.64a13.16,13.16,0,0,0,.5-2.21h-25.1A16.76,16.76,0,0,0,337.09,188.47Z" class="animable"/><path style="fill:#fff;transform-origin:348.313px 183.53px" id="elv1g566h858h" d="M361.27,182.3h-26a2.11,2.11,0,0,0,0,.25,16.21,16.21,0,0,0,.39,2.21h25.69a15,15,0,0,0-.08-2.21A2.11,2.11,0,0,0,361.27,182.3Z" class="animable"/><path style="fill:#ff8b7b;transform-origin:350.436px 145.509px" id="eld4zyaly6nwv" d="M357.67,131.14l-11.76,10.38c1.69,4.41,2.37,9.16-4.33,11.26a1.53,1.53,0,0,0-.87.69c-1.58,2.74-1.91,7,5.47,6.34a22.45,22.45,0,0,0,14.45-7,1.44,1.44,0,0,0,.1-2C356.73,146.51,357,136.7,357.67,131.14Z" class="animable"/><g id="elm6uyql3fmri"><path d="M352.87,135.37l-7,6.15a17.11,17.11,0,0,1,1,3.22c2.8-.53,6.42-3.53,6.47-6.18A8.07,8.07,0,0,0,352.87,135.37Z" class="animable" style="opacity:.2;transform-origin:349.611px 140.055px"/></g><path style="fill:#263238;transform-origin:337.063px 123.057px" id="eljsu9ft1kf1o" d="M335.63,116.61c-2.58,3.56-.88,11.81,1,13.11C341.43,127.47,340.55,114.58,335.63,116.61Z" class="animable"/><path style="fill:#ff8b7b;transform-origin:346.419px 126.908px" id="el8wbh1zfku4" d="M357.88,122.06c0,8.07.34,12.79-3.5,17.19-5.77,6.61-15.94,3.58-18.32-4.32-2.14-7.11-1.71-19.11,6-22.83A10.93,10.93,0,0,1,357.88,122.06Z" class="animable"/><path style="fill:#263238;transform-origin:348.757px 120.865px" id="elb2g9mjn1s7j" d="M357.34,130.05c1.18-2.7-5.2-1.09-5.2-1.09s-1-8.64,1.74-12c-2.77,1.65-10.11,1.6-11.63,0-3.09,1.56-7.19,2-9.81.21s-2.49-6.05-.8-8.08c2.15,2,5.2-.76,3.84-2.11,4.3-2.58,11.59-1.18,13,.3a2.38,2.38,0,0,1,.72-3.26s.85,3.27,3.43,3.13c4.56-.25,9.9,1.31,7.86,5.62,3.26.34,4.82,4.06,3.85,7s1.95,3.47,2.28,2.58c1.1,2.07.22,3.3-1.69,4.06,5,5.78-5.66,7.54-7.64,11.3C357.27,137.67,355.91,133.34,357.34,130.05Z" class="animable"/><path style="fill:#ff8b7b;transform-origin:358.377px 129.256px" id="elru4ue0dcyb" d="M362.14,129.68a7.8,7.8,0,0,1-4.33,4c-2.54.93-4-1.28-3.45-3.77.49-2.25,2.41-5.44,5-5.29S363.18,127.41,362.14,129.68Z" class="animable"/><path style="fill:#263238;transform-origin:353.365px 308.745px" id="el06k2oyk21ice" d="M367.8,307.34c-2.62-41,2.47-88.79,2.47-88.79l-34,2.16c2,15.45,8,65.14,10.47,89.43,2.63,25.79,9.71,88.59,9.71,88.59l13.8.21S371.52,339.66,367.8,307.34Z" class="animable"/><g id="elgn6ekpczz1"><path d="M367.55,302.91c0-.54-.05-1.07-.08-1.61-.84-18.46-.28-37.75.55-53.05l-2.1,1.33c-8.94,13.25-3.2,38.18,1.75,55.8C367.63,304.56,367.58,303.73,367.55,302.91Z" class="animable" style="opacity:.2;transform-origin:364.629px 276.815px"/></g><polygon style="fill:#263238;transform-origin:363.145px 398.84px" id="el3p370wgf12o" points="355.15 395.9 356.25 401.52 370.58 401.78 371.14 396.47 355.15 395.9" class="animable"/><path style="fill:#263238;transform-origin:345.478px 125.41px" id="elwsn1ogdtues" d="M346.26,125.36c0,.65-.28,1.21-.71,1.24s-.81-.48-.85-1.14.28-1.21.71-1.24S346.22,124.7,346.26,125.36Z" class="animable"/><path style="fill:#263238;transform-origin:336.418px 126.125px" id="elho12m4asabo" d="M337.2,126.08c0,.65-.28,1.21-.71,1.23s-.81-.48-.85-1.13.28-1.21.71-1.24S337.16,125.42,337.2,126.08Z" class="animable"/><path style="fill:#ff5652;transform-origin:339.485px 128.958px" id="el0urmhkfjajqq" d="M340.73,125.77a23.69,23.69,0,0,1-2.83,5.81,3.81,3.81,0,0,0,3.17.38Z" class="animable"/><path style="fill:#263238;transform-origin:345.221px 132.244px" id="elv3c9whw9x1f" d="M343.94,133.53a5.51,5.51,0,0,0,3.59-2.39.21.21,0,0,0-.07-.27.19.19,0,0,0-.26.08,5.33,5.33,0,0,1-4.13,2.3.19.19,0,0,0-.18.21.18.18,0,0,0,.2.18A7.29,7.29,0,0,0,343.94,133.53Z" class="animable"/><path style="fill:#263238;transform-origin:346.811px 120.321px" id="el7d14l9ncqay" d="M348.33,121.33a.32.32,0,0,0,.17-.09.37.37,0,0,0,.05-.54,3.81,3.81,0,0,0-3.23-1.38.4.4,0,0,0-.34.43.38.38,0,0,0,.43.33h0A3.05,3.05,0,0,1,348,121.2.37.37,0,0,0,348.33,121.33Z" class="animable"/><path style="fill:#263238;transform-origin:336.293px 121.421px" id="elazfcjbi8yi7" d="M335,122.73a.41.41,0,0,0,.31-.2,3.11,3.11,0,0,1,2.27-1.64.39.39,0,1,0-.05-.77,3.92,3.92,0,0,0-2.9,2,.39.39,0,0,0,.15.52A.44.44,0,0,0,335,122.73Z" class="animable"/><polygon style="fill:#ff8b7b;transform-origin:406.855px 403.41px" id="elf5hek9a65i" points="412.84 412.92 404.68 412.8 400.87 393.9 409.02 394.03 412.84 412.92" class="animable"/><path style="fill:#407bff;transform-origin:413.09px 411.569px" id="elh4saugh43vo" d="M411.65,407l-8.87-.08a.45.45,0,0,0-.49.55l1.09,7.27a1.86,1.86,0,0,0,1.7,1.47c3.18,0,4.13-.26,8.15-.22,4.7,0,2.57.18,8.08.23,3.34,0,3-3.34,1.5-3.68-4.78-1.06-6.43-2.9-9-4.88A3.6,3.6,0,0,0,411.65,407Z" class="animable"/><g id="elrp1q6ikkxcl"><polygon points="400.87 393.91 402.83 403.64 410.99 403.77 409.03 394.03 400.87 393.91" class="animable" style="opacity:.2;transform-origin:405.93px 398.84px"/></g><path style="fill:#263238;transform-origin:381.66px 308.68px" id="elyfh7mz0j0k9" d="M396.28,306.74c-5.68-37.07-10.61-74.15-16.46-88.79L351,219.77s16.21,63.52,24.49,89.23c4,27,23.89,90.41,23.89,90.41l12.94-.57S402,343.81,396.28,306.74Z" class="animable"/><polygon style="fill:#263238;transform-origin:405.55px 399.77px" id="elrrpaa9fh9ao" points="397.36 397.13 399.4 402.65 413.74 402.19 413.41 396.89 397.36 397.13" class="animable"/><path style="fill:#ff8b7b;transform-origin:375.526px 189.3px" id="elddea5ogxs5d" d="M380.31,161.86c.46.73.8,1.3,1.18,1.94s.69,1.24,1,1.87c.66,1.25,1.29,2.51,1.91,3.77a82.72,82.72,0,0,1,3.23,7.84,68.88,68.88,0,0,1,2.4,8.23l.46,2.12.37,2.16c.13.71.2,1.45.28,2.18l.12,1.1.06.55,0,.13,0,.42a8.19,8.19,0,0,1-.59,3.51,11.06,11.06,0,0,1-.89,1.76,15.25,15.25,0,0,1-1.82,2.33,31.31,31.31,0,0,1-3.55,3.17,66.56,66.56,0,0,1-7.11,4.7,109.07,109.07,0,0,1-14.74,7.1l-2.9-5.38c4.18-3.09,8.46-6.19,12.43-9.38,2-1.58,3.92-3.22,5.6-4.85a19.91,19.91,0,0,0,2.13-2.37,6.09,6.09,0,0,0,.53-.87c.07-.14-.09-.19-.2.69,0,.08,0,.23,0,.36v.17l0-.11-.09-.43-.18-.87c-.11-.58-.22-1.16-.38-1.74l-.44-1.73-.51-1.74c-.71-2.31-1.52-4.61-2.45-6.89s-1.94-4.55-3-6.78c-.54-1.11-1.09-2.23-1.67-3.31l-.88-1.62-.83-1.5Z" class="animable"/><path style="fill:#ff8b7b;transform-origin:359.831px 215.2px" id="el8ejormx57gv" d="M362.69,210.2l-8.22.84L358,220.2s7.36-1.66,7.19-5.7Z" class="animable"/><path style="fill:#ff8b7b;transform-origin:353.255px 216.495px" id="eldgjvqaby2z" d="M348.89,217.63l1.79,3a2.8,2.8,0,0,0,3.49,1.14L358,220.2,354.47,211,350,213.67A2.89,2.89,0,0,0,348.89,217.63Z" class="animable"/><path style="fill:#407bff;transform-origin:372.649px 168.947px" id="el6rwhl27rag5" d="M357.48,166.24c2.39,6.49,10.89,15,15.17,19.42,9.5-.12,15.86-9.49,15.86-9.49s-4.32-16.44-12.76-22.38C369.4,149.33,353.27,154.76,357.48,166.24Z" class="animable"/></g><g id="freepik--Printer--inject-35" class="animable" style="transform-origin:190.497px 315.145px"><rect style="fill:#263238;transform-origin:241.38px 311.68px" id="el6l1icb4yt1a" width="197.24" height="18.32" x="142.76" y="302.52" class="animable"/><g id="el1pjnktd3n2n"><rect width="55.99" height="18.32" x="284.01" y="302.52" class="animable" style="opacity:.2;transform-origin:312.005px 311.68px"/></g><rect style="fill:#263238;transform-origin:148.665px 370.305px" id="elld2gidi996" width="11.81" height="98.93" x="142.76" y="320.84" class="animable"/><g id="elvk1qw2q06ef"><polygon points="154.56 325.97 142.76 323.41 142.76 320.84 154.56 320.84 154.56 325.97" class="animable" style="opacity:.2;transform-origin:148.66px 323.405px"/></g><rect style="fill:#263238;transform-origin:334.105px 370.305px" id="el7y1pdvda498" width="11.81" height="98.93" x="328.2" y="320.84" class="animable"/><g id="el108zrfusub5"><rect width="11.81" height="98.93" x="328.2" y="320.84" class="animable" style="opacity:.2;transform-origin:334.105px 370.305px"/></g><rect style="fill:#263238;transform-origin:289.915px 370.305px" id="el963km474hwh" width="11.81" height="98.93" x="284.01" y="320.84" class="animable"/><g id="elzqczgc0hdfa"><polygon points="295.82 325.97 284.01 323.41 284.01 320.84 295.82 320.84 295.82 325.97" class="animable" style="opacity:.2;transform-origin:289.915px 323.405px"/></g><rect style="fill:#263238;transform-origin:185.625px 370.305px" id="elc1qsedixpi" width="11.81" height="98.93" x="179.72" y="320.84" class="animable"/><g id="elbxe21v3cwgh"><rect width="11.81" height="98.93" x="179.72" y="320.84" class="animable" style="opacity:.2;transform-origin:185.625px 370.305px"/></g><polygon style="fill:#263238;transform-origin:239.46px 239.27px" id="el49tqocjnjj3" points="319.96 210.52 172.09 210.52 158.96 268.02 306.83 268.02 319.96 210.52" class="animable"/><polygon id="ele1507i6ql45" points="319.96 210.52 323.34 210.52 310.21 268.02 306.83 268.02 319.96 210.52" class="animable" style="transform-origin:315.085px 239.27px"/><rect style="fill:#407bff;transform-origin:234.635px 268.02px" id="elvu1u51n49zj" width="237.13" height="69" x="116.07" y="233.52" class="animable" rx="12"/><g id="elf5wtk2wbwwt"><rect width="51.25" height="69" x="301.96" y="233.52" class="animable" rx="12" style="opacity:.2;transform-origin:327.585px 268.02px"/></g><g id="elqhzu4h1xok"><path d="M293.2,251.35H124.83a2,2,0,0,1-2-2h0a2,2,0,0,1,2-2H293.2a2,2,0,0,1,2,2h0A2,2,0,0,1,293.2,251.35Z" class="animable" style="opacity:.2;transform-origin:209.015px 249.35px"/></g><path style="fill:#fff;transform-origin:288.46px 268.185px" id="elfvry41ov2st" d="M283.4,269.85h10.12a1.67,1.67,0,0,0,1.66-1.66h0a1.67,1.67,0,0,0-1.66-1.67H283.4a1.67,1.67,0,0,0-1.66,1.67h0A1.67,1.67,0,0,0,283.4,269.85Z" class="animable"/><path style="fill:#fff;transform-origin:288.46px 275.275px" id="elj3asi5ovgqf" d="M283.4,276.94h10.12a1.67,1.67,0,0,0,1.66-1.67h0a1.67,1.67,0,0,0-1.66-1.66H283.4a1.67,1.67,0,0,0-1.66,1.66h0A1.67,1.67,0,0,0,283.4,276.94Z" class="animable"/><path style="fill:#fff;transform-origin:288.46px 282.33px" id="elb50misu5vmg" d="M283.4,284h10.12a1.67,1.67,0,0,0,1.66-1.67h0a1.67,1.67,0,0,0-1.66-1.67H283.4a1.67,1.67,0,0,0-1.66,1.67h0A1.67,1.67,0,0,0,283.4,284Z" class="animable"/><path style="fill:#407bff;transform-origin:212.313px 234.08px" id="el6htwn3deon" d="M164.11,249.35c1.95-16.87-10.15-30.54-27-30.54H260.3c16.87,0,29,13.67,27,30.54Z" class="animable"/><g id="el79pmej1wdqk"><g style="opacity:.3;transform-origin:212.313px 234.08px" class="animable"><path style="fill:#fff;transform-origin:212.313px 234.08px" id="elvnc4zyhouyb" d="M164.11,249.35c1.95-16.87-10.15-30.54-27-30.54H260.3c16.87,0,29,13.67,27,30.54Z" class="animable"/></g></g><path style="fill:#407bff;transform-origin:174.582px 310.015px" id="elft3izs3mh4b" d="M137.09,218.81H260.3c-16.86,0-32.11,13.67-34.06,30.54l-14,121.33c-1.94,16.87-17.19,30.54-34.06,30.54H116.08c-16.87,0-29-13.67-27-30.54l14-121.33C105,232.48,120.22,218.81,137.09,218.81Z" class="animable"/><g id="elswljcemgz6f"><path d="M137.09,218.81H260.3c-16.86,0-32.11,13.67-34.06,30.54l-14,121.33c-1.94,16.87-17.19,30.54-34.06,30.54H116.08c-16.87,0-29-13.67-27-30.54l14-121.33C105,232.48,120.22,218.81,137.09,218.81Z" class="animable" style="fill:#fff;opacity:.7;transform-origin:174.582px 310.015px"/></g><path style="fill:#407bff;transform-origin:102.987px 385.95px" id="elpy5s3ctgnvl" d="M151.19,370.68c-1.95,16.87,10.15,30.54,27,30.54H55c-16.87,0-29-13.67-27-30.54Z" class="animable"/><g id="el3c15qc6llag"><path d="M151.19,370.68c-1.95,16.87,10.15,30.54,27,30.54H55c-16.87,0-29-13.67-27-30.54Z" class="animable" style="fill:#fff;opacity:.5;transform-origin:102.987px 385.95px"/></g><path style="fill:#407bff;transform-origin:112.91px 264.58px" id="elw4y074iuaa" d="M112,259.9h2.9l-1.08,9.36h-2.9Z" class="animable"/><path style="fill:#407bff;transform-origin:120.935px 264.58px" id="el3808y7ecjih" d="M117,259.9h2.7l2.93,5.18.59-5.18h2.73l-1.08,9.36h-2.72l-2.92-5.14-.59,5.14h-2.72Z" class="animable"/><path style="fill:#407bff;transform-origin:131.97px 264.58px" id="elo5t0hn6f59" d="M126.91,259.9h3l1.33,6.74,2.85-6.74h2.94l-4.56,9.36h-3.13Z" class="animable"/><path style="fill:#407bff;transform-origin:141.514px 264.573px" id="elwffx5kz036s" d="M136.65,264.59a5.44,5.44,0,0,1,1.69-3.57,5.34,5.34,0,0,1,3.7-1.28A4.4,4.4,0,0,1,145.5,261a4.34,4.34,0,0,1,.86,3.51,6.28,6.28,0,0,1-.87,2.69,4.61,4.61,0,0,1-1.78,1.64,6.61,6.61,0,0,1-5.23.08,3.39,3.39,0,0,1-1.5-1.6A5.1,5.1,0,0,1,136.65,264.59Zm2.89,0a2.94,2.94,0,0,0,.29,2,1.61,1.61,0,0,0,1.37.62,2,2,0,0,0,1.51-.61,3.77,3.77,0,0,0,.76-2.18,2.69,2.69,0,0,0-.31-1.93,1.64,1.64,0,0,0-1.38-.61,2,2,0,0,0-1.47.62A3.52,3.52,0,0,0,139.54,264.6Z" class="animable"/><path style="fill:#407bff;transform-origin:149.47px 264.58px" id="elhi67za0ae86" d="M148.56,259.9h2.9l-1.08,9.36h-2.9Z" class="animable"/><path style="fill:#407bff;transform-origin:157.252px 264.577px" id="ellprbipdv9d" d="M159.13,265.43l2.44.77a5.38,5.38,0,0,1-1,1.78,4,4,0,0,1-1.48,1.08,5.49,5.49,0,0,1-2.12.36,5.76,5.76,0,0,1-2.44-.44,3.38,3.38,0,0,1-1.49-1.56,5,5,0,0,1-.37-2.86,5.46,5.46,0,0,1,1.65-3.57,5.2,5.2,0,0,1,3.63-1.25,4.34,4.34,0,0,1,2.7.72,3.61,3.61,0,0,1,1.25,2.2l-2.62.56a1.64,1.64,0,0,0-.21-.62,1.37,1.37,0,0,0-.53-.51,1.59,1.59,0,0,0-.77-.18,1.92,1.92,0,0,0-1.59.79,3.67,3.67,0,0,0-.61,1.84,3.28,3.28,0,0,0,.23,2.13,1.42,1.42,0,0,0,1.26.58,1.81,1.81,0,0,0,1.31-.46A3.5,3.5,0,0,0,159.13,265.43Z" class="animable"/><path style="fill:#407bff;transform-origin:167.055px 264.58px" id="elspi0bv7s7a" d="M163.7,259.9h7.75l-.23,2h-4.86l-.17,1.49h4.5l-.22,1.91H166l-.21,1.84h5l-.24,2.12h-7.89Z" class="animable"/><polygon style="fill:#407bff;transform-origin:160.21px 287.77px" id="elk68jbx6fas" points="211.76 293.69 107.3 293.69 108.66 281.85 213.12 281.85 211.76 293.69" class="animable"/><g id="elq8072o7uzy"><polygon points="211.76 293.69 107.3 293.69 106.19 303.35 210.65 303.35 211.76 293.69" class="animable" style="fill:#fff;opacity:.8;transform-origin:158.975px 298.52px"/></g><polygon style="fill:#407bff;transform-origin:188.975px 353.515px" id="el4gjob47uf7w" points="204.54 356.37 172.75 356.37 173.4 350.66 205.2 350.66 204.54 356.37" class="animable"/><g id="ele0hu6usumgg"><polygon points="204.54 356.37 172.75 356.37 172.21 361.04 204 361.04 204.54 356.37" class="animable" style="fill:#fff;opacity:.8;transform-origin:188.375px 358.705px"/></g><g id="elxcx7xpift"><polygon points="209.53 313.02 105.07 313.02 106.19 303.35 210.65 303.35 209.53 313.02" class="animable" style="fill:#fff;opacity:.5;transform-origin:157.86px 308.185px"/></g><g id="eley925mtbnce"><polygon points="209.53 313.02 105.07 313.02 103.96 322.69 208.42 322.69 209.53 313.02" class="animable" style="fill:#fff;opacity:.8;transform-origin:156.745px 317.855px"/></g><g id="elsp28bc507os"><polygon points="207.31 332.35 102.84 332.35 103.96 322.69 208.42 322.69 207.31 332.35" class="animable" style="fill:#fff;opacity:.5;transform-origin:155.63px 327.52px"/></g><g id="elcmttu2sgwfh"><polygon points="207.31 332.35 102.84 332.35 101.73 342.02 206.19 342.02 207.31 332.35" class="animable" style="fill:#fff;opacity:.8;transform-origin:154.52px 337.185px"/></g></g><defs><filter id="active" height="200%"><feMorphology in="SourceAlpha" operator="dilate" radius="2" result="DILATED"/><feFlood flood-color="#32DFEC" flood-opacity="1" result="PINK"/><feComposite in="PINK" in2="DILATED" operator="in" result="OUTLINE"/><feMerge><feMergeNode in="OUTLINE"/><feMergeNode in="SourceGraphic"/></feMerge></filter><filter id="hover" height="200%"><feMorphology in="SourceAlpha" operator="dilate" radius="2" result="DILATED"/><feFlood flood-color="red" flood-opacity=".5" result="PINK"/><feComposite in="PINK" in2="DILATED" operator="in" result="OUTLINE"/><feMerge><feMergeNode in="OUTLINE"/><feMergeNode in="SourceGraphic"/></feMerge><feColorMatrix type="matrix" values="0 0 0 0 0 0 1 0 0 0 0 0 0 0 0 0 0 0 1 0"/></filter></defs></svg>